<?xml version="1.0" encoding="utf-8" standalone="no"?>
<!DOCTYPE svg PUBLIC "-//W3C//DTD SVG 1.1//EN"
  "http://www.w3.org/Graphics/SVG/1.1/DTD/svg11.dtd">
<svg xmlns:xlink="http://www.w3.org/1999/xlink" width="926.503227pt" height="351.142187pt" viewBox="0 0 926.503227 351.142187" xmlns="http://www.w3.org/2000/svg" version="1.1">
 <metadata>
  <rdf:RDF xmlns:dc="http://purl.org/dc/elements/1.1/" xmlns:cc="http://creativecommons.org/ns#" xmlns:rdf="http://www.w3.org/1999/02/22-rdf-syntax-ns#">
   <cc:Work>
    <dc:type rdf:resource="http://purl.org/dc/dcmitype/StillImage"/>
    <dc:date>2025-07-25T13:33:52.883561</dc:date>
    <dc:format>image/svg+xml</dc:format>
    <dc:creator>
     <cc:Agent>
      <dc:title>Matplotlib v3.10.1, https://matplotlib.org/</dc:title>
     </cc:Agent>
    </dc:creator>
   </cc:Work>
  </rdf:RDF>
 </metadata>
 <defs>
  <style type="text/css">*{stroke-linejoin: round; stroke-linecap: butt}</style>
 </defs>
 <g id="figure_1">
  <g id="patch_1">
   <path d="M 0 351.142187 
L 926.503227 351.142187 
L 926.503227 0 
L 0 0 
z
" style="fill: #ffffff"/>
  </g>
  <g id="axes_1">
   <g id="patch_2">
    <path d="M 54.654375 307.779062 
L 342.221193 307.779062 
L 342.221193 11.759062 
L 54.654375 11.759062 
z
" style="fill: #ffffff"/>
   </g>
   <g id="matplotlib.axis_1">
    <g id="xtick_1">
     <g id="line2d_1">
      <defs>
       <path id="ma38cd2ff72" d="M 0 0 
L 0 3.5 
" style="stroke: #000000; stroke-width: 0.8"/>
      </defs>
      <g>
       <use xlink:href="#ma38cd2ff72" x="111.70671" y="307.779062" style="stroke: #000000; stroke-width: 0.8"/>
      </g>
     </g>
     <g id="text_1">
      <!-- 100 -->
      <g transform="translate(100.25421 323.897187) scale(0.12 -0.12)">
       <defs>
        <path id="DejaVuSans-31" d="M 794 531 
L 1825 531 
L 1825 4091 
L 703 3866 
L 703 4441 
L 1819 4666 
L 2450 4666 
L 2450 531 
L 3481 531 
L 3481 0 
L 794 0 
L 794 531 
z
" transform="scale(0.015625)"/>
        <path id="DejaVuSans-30" d="M 2034 4250 
Q 1547 4250 1301 3770 
Q 1056 3291 1056 2328 
Q 1056 1369 1301 889 
Q 1547 409 2034 409 
Q 2525 409 2770 889 
Q 3016 1369 3016 2328 
Q 3016 3291 2770 3770 
Q 2525 4250 2034 4250 
z
M 2034 4750 
Q 2819 4750 3233 4129 
Q 3647 3509 3647 2328 
Q 3647 1150 3233 529 
Q 2819 -91 2034 -91 
Q 1250 -91 836 529 
Q 422 1150 422 2328 
Q 422 3509 836 4129 
Q 1250 4750 2034 4750 
z
" transform="scale(0.015625)"/>
       </defs>
       <use xlink:href="#DejaVuSans-31"/>
       <use xlink:href="#DejaVuSans-30" transform="translate(63.623047 0)"/>
       <use xlink:href="#DejaVuSans-30" transform="translate(127.246094 0)"/>
      </g>
     </g>
    </g>
    <g id="xtick_2">
     <g id="line2d_2">
      <g>
       <use xlink:href="#ma38cd2ff72" x="169.335331" y="307.779062" style="stroke: #000000; stroke-width: 0.8"/>
      </g>
     </g>
     <g id="text_2">
      <!-- 200 -->
      <g transform="translate(157.882831 323.897187) scale(0.12 -0.12)">
       <defs>
        <path id="DejaVuSans-32" d="M 1228 531 
L 3431 531 
L 3431 0 
L 469 0 
L 469 531 
Q 828 903 1448 1529 
Q 2069 2156 2228 2338 
Q 2531 2678 2651 2914 
Q 2772 3150 2772 3378 
Q 2772 3750 2511 3984 
Q 2250 4219 1831 4219 
Q 1534 4219 1204 4116 
Q 875 4013 500 3803 
L 500 4441 
Q 881 4594 1212 4672 
Q 1544 4750 1819 4750 
Q 2544 4750 2975 4387 
Q 3406 4025 3406 3419 
Q 3406 3131 3298 2873 
Q 3191 2616 2906 2266 
Q 2828 2175 2409 1742 
Q 1991 1309 1228 531 
z
" transform="scale(0.015625)"/>
       </defs>
       <use xlink:href="#DejaVuSans-32"/>
       <use xlink:href="#DejaVuSans-30" transform="translate(63.623047 0)"/>
       <use xlink:href="#DejaVuSans-30" transform="translate(127.246094 0)"/>
      </g>
     </g>
    </g>
    <g id="xtick_3">
     <g id="line2d_3">
      <g>
       <use xlink:href="#ma38cd2ff72" x="226.963951" y="307.779062" style="stroke: #000000; stroke-width: 0.8"/>
      </g>
     </g>
     <g id="text_3">
      <!-- 300 -->
      <g transform="translate(215.511451 323.897187) scale(0.12 -0.12)">
       <defs>
        <path id="DejaVuSans-33" d="M 2597 2516 
Q 3050 2419 3304 2112 
Q 3559 1806 3559 1356 
Q 3559 666 3084 287 
Q 2609 -91 1734 -91 
Q 1441 -91 1130 -33 
Q 819 25 488 141 
L 488 750 
Q 750 597 1062 519 
Q 1375 441 1716 441 
Q 2309 441 2620 675 
Q 2931 909 2931 1356 
Q 2931 1769 2642 2001 
Q 2353 2234 1838 2234 
L 1294 2234 
L 1294 2753 
L 1863 2753 
Q 2328 2753 2575 2939 
Q 2822 3125 2822 3475 
Q 2822 3834 2567 4026 
Q 2313 4219 1838 4219 
Q 1578 4219 1281 4162 
Q 984 4106 628 3988 
L 628 4550 
Q 988 4650 1302 4700 
Q 1616 4750 1894 4750 
Q 2613 4750 3031 4423 
Q 3450 4097 3450 3541 
Q 3450 3153 3228 2886 
Q 3006 2619 2597 2516 
z
" transform="scale(0.015625)"/>
       </defs>
       <use xlink:href="#DejaVuSans-33"/>
       <use xlink:href="#DejaVuSans-30" transform="translate(63.623047 0)"/>
       <use xlink:href="#DejaVuSans-30" transform="translate(127.246094 0)"/>
      </g>
     </g>
    </g>
    <g id="xtick_4">
     <g id="line2d_4">
      <g>
       <use xlink:href="#ma38cd2ff72" x="284.592572" y="307.779062" style="stroke: #000000; stroke-width: 0.8"/>
      </g>
     </g>
     <g id="text_4">
      <!-- 400 -->
      <g transform="translate(273.140072 323.897187) scale(0.12 -0.12)">
       <defs>
        <path id="DejaVuSans-34" d="M 2419 4116 
L 825 1625 
L 2419 1625 
L 2419 4116 
z
M 2253 4666 
L 3047 4666 
L 3047 1625 
L 3713 1625 
L 3713 1100 
L 3047 1100 
L 3047 0 
L 2419 0 
L 2419 1100 
L 313 1100 
L 313 1709 
L 2253 4666 
z
" transform="scale(0.015625)"/>
       </defs>
       <use xlink:href="#DejaVuSans-34"/>
       <use xlink:href="#DejaVuSans-30" transform="translate(63.623047 0)"/>
       <use xlink:href="#DejaVuSans-30" transform="translate(127.246094 0)"/>
      </g>
     </g>
    </g>
    <g id="xtick_5">
     <g id="line2d_5">
      <g>
       <use xlink:href="#ma38cd2ff72" x="342.221193" y="307.779062" style="stroke: #000000; stroke-width: 0.8"/>
      </g>
     </g>
     <g id="text_5">
      <!-- 500 -->
      <g transform="translate(330.768693 323.897187) scale(0.12 -0.12)">
       <defs>
        <path id="DejaVuSans-35" d="M 691 4666 
L 3169 4666 
L 3169 4134 
L 1269 4134 
L 1269 2991 
Q 1406 3038 1543 3061 
Q 1681 3084 1819 3084 
Q 2600 3084 3056 2656 
Q 3513 2228 3513 1497 
Q 3513 744 3044 326 
Q 2575 -91 1722 -91 
Q 1428 -91 1123 -41 
Q 819 9 494 109 
L 494 744 
Q 775 591 1075 516 
Q 1375 441 1709 441 
Q 2250 441 2565 725 
Q 2881 1009 2881 1497 
Q 2881 1984 2565 2268 
Q 2250 2553 1709 2553 
Q 1456 2553 1204 2497 
Q 953 2441 691 2322 
L 691 4666 
z
" transform="scale(0.015625)"/>
       </defs>
       <use xlink:href="#DejaVuSans-35"/>
       <use xlink:href="#DejaVuSans-30" transform="translate(63.623047 0)"/>
       <use xlink:href="#DejaVuSans-30" transform="translate(127.246094 0)"/>
      </g>
     </g>
    </g>
    <g id="text_6">
     <!-- Time / h -->
     <g transform="translate(170.067003 341.030625) scale(0.14 -0.14)">
      <defs>
       <path id="DejaVuSans-54" d="M -19 4666 
L 3928 4666 
L 3928 4134 
L 2272 4134 
L 2272 0 
L 1638 0 
L 1638 4134 
L -19 4134 
L -19 4666 
z
" transform="scale(0.015625)"/>
       <path id="DejaVuSans-69" d="M 603 3500 
L 1178 3500 
L 1178 0 
L 603 0 
L 603 3500 
z
M 603 4863 
L 1178 4863 
L 1178 4134 
L 603 4134 
L 603 4863 
z
" transform="scale(0.015625)"/>
       <path id="DejaVuSans-6d" d="M 3328 2828 
Q 3544 3216 3844 3400 
Q 4144 3584 4550 3584 
Q 5097 3584 5394 3201 
Q 5691 2819 5691 2113 
L 5691 0 
L 5113 0 
L 5113 2094 
Q 5113 2597 4934 2840 
Q 4756 3084 4391 3084 
Q 3944 3084 3684 2787 
Q 3425 2491 3425 1978 
L 3425 0 
L 2847 0 
L 2847 2094 
Q 2847 2600 2669 2842 
Q 2491 3084 2119 3084 
Q 1678 3084 1418 2786 
Q 1159 2488 1159 1978 
L 1159 0 
L 581 0 
L 581 3500 
L 1159 3500 
L 1159 2956 
Q 1356 3278 1631 3431 
Q 1906 3584 2284 3584 
Q 2666 3584 2933 3390 
Q 3200 3197 3328 2828 
z
" transform="scale(0.015625)"/>
       <path id="DejaVuSans-65" d="M 3597 1894 
L 3597 1613 
L 953 1613 
Q 991 1019 1311 708 
Q 1631 397 2203 397 
Q 2534 397 2845 478 
Q 3156 559 3463 722 
L 3463 178 
Q 3153 47 2828 -22 
Q 2503 -91 2169 -91 
Q 1331 -91 842 396 
Q 353 884 353 1716 
Q 353 2575 817 3079 
Q 1281 3584 2069 3584 
Q 2775 3584 3186 3129 
Q 3597 2675 3597 1894 
z
M 3022 2063 
Q 3016 2534 2758 2815 
Q 2500 3097 2075 3097 
Q 1594 3097 1305 2825 
Q 1016 2553 972 2059 
L 3022 2063 
z
" transform="scale(0.015625)"/>
       <path id="DejaVuSans-20" transform="scale(0.015625)"/>
       <path id="DejaVuSans-2f" d="M 1625 4666 
L 2156 4666 
L 531 -594 
L 0 -594 
L 1625 4666 
z
" transform="scale(0.015625)"/>
       <path id="DejaVuSans-68" d="M 3513 2113 
L 3513 0 
L 2938 0 
L 2938 2094 
Q 2938 2591 2744 2837 
Q 2550 3084 2163 3084 
Q 1697 3084 1428 2787 
Q 1159 2491 1159 1978 
L 1159 0 
L 581 0 
L 581 4863 
L 1159 4863 
L 1159 2956 
Q 1366 3272 1645 3428 
Q 1925 3584 2291 3584 
Q 2894 3584 3203 3211 
Q 3513 2838 3513 2113 
z
" transform="scale(0.015625)"/>
      </defs>
      <use xlink:href="#DejaVuSans-54"/>
      <use xlink:href="#DejaVuSans-69" transform="translate(57.958984 0)"/>
      <use xlink:href="#DejaVuSans-6d" transform="translate(85.742188 0)"/>
      <use xlink:href="#DejaVuSans-65" transform="translate(183.154297 0)"/>
      <use xlink:href="#DejaVuSans-20" transform="translate(244.677734 0)"/>
      <use xlink:href="#DejaVuSans-2f" transform="translate(276.464844 0)"/>
      <use xlink:href="#DejaVuSans-20" transform="translate(310.15625 0)"/>
      <use xlink:href="#DejaVuSans-68" transform="translate(341.943359 0)"/>
     </g>
    </g>
   </g>
   <g id="matplotlib.axis_2">
    <g id="ytick_1">
     <g id="line2d_6">
      <defs>
       <path id="m79e578801f" d="M 0 0 
L -3.5 0 
" style="stroke: #000000; stroke-width: 0.8"/>
      </defs>
      <g>
       <use xlink:href="#m79e578801f" x="54.654375" y="292.924974" style="stroke: #000000; stroke-width: 0.8"/>
      </g>
     </g>
     <g id="text_7">
      <!-- 240 -->
      <g transform="translate(24.749375 297.484037) scale(0.12 -0.12)">
       <use xlink:href="#DejaVuSans-32"/>
       <use xlink:href="#DejaVuSans-34" transform="translate(63.623047 0)"/>
       <use xlink:href="#DejaVuSans-30" transform="translate(127.246094 0)"/>
      </g>
     </g>
    </g>
    <g id="ytick_2">
     <g id="line2d_7">
      <g>
       <use xlink:href="#m79e578801f" x="54.654375" y="250.716435" style="stroke: #000000; stroke-width: 0.8"/>
      </g>
     </g>
     <g id="text_8">
      <!-- 245 -->
      <g transform="translate(24.749375 255.275497) scale(0.12 -0.12)">
       <use xlink:href="#DejaVuSans-32"/>
       <use xlink:href="#DejaVuSans-34" transform="translate(63.623047 0)"/>
       <use xlink:href="#DejaVuSans-35" transform="translate(127.246094 0)"/>
      </g>
     </g>
    </g>
    <g id="ytick_3">
     <g id="line2d_8">
      <g>
       <use xlink:href="#m79e578801f" x="54.654375" y="208.507895" style="stroke: #000000; stroke-width: 0.8"/>
      </g>
     </g>
     <g id="text_9">
      <!-- 250 -->
      <g transform="translate(24.749375 213.066957) scale(0.12 -0.12)">
       <use xlink:href="#DejaVuSans-32"/>
       <use xlink:href="#DejaVuSans-35" transform="translate(63.623047 0)"/>
       <use xlink:href="#DejaVuSans-30" transform="translate(127.246094 0)"/>
      </g>
     </g>
    </g>
    <g id="ytick_4">
     <g id="line2d_9">
      <g>
       <use xlink:href="#m79e578801f" x="54.654375" y="166.299355" style="stroke: #000000; stroke-width: 0.8"/>
      </g>
     </g>
     <g id="text_10">
      <!-- 255 -->
      <g transform="translate(24.749375 170.858418) scale(0.12 -0.12)">
       <use xlink:href="#DejaVuSans-32"/>
       <use xlink:href="#DejaVuSans-35" transform="translate(63.623047 0)"/>
       <use xlink:href="#DejaVuSans-35" transform="translate(127.246094 0)"/>
      </g>
     </g>
    </g>
    <g id="ytick_5">
     <g id="line2d_10">
      <g>
       <use xlink:href="#m79e578801f" x="54.654375" y="124.090816" style="stroke: #000000; stroke-width: 0.8"/>
      </g>
     </g>
     <g id="text_11">
      <!-- 260 -->
      <g transform="translate(24.749375 128.649878) scale(0.12 -0.12)">
       <defs>
        <path id="DejaVuSans-36" d="M 2113 2584 
Q 1688 2584 1439 2293 
Q 1191 2003 1191 1497 
Q 1191 994 1439 701 
Q 1688 409 2113 409 
Q 2538 409 2786 701 
Q 3034 994 3034 1497 
Q 3034 2003 2786 2293 
Q 2538 2584 2113 2584 
z
M 3366 4563 
L 3366 3988 
Q 3128 4100 2886 4159 
Q 2644 4219 2406 4219 
Q 1781 4219 1451 3797 
Q 1122 3375 1075 2522 
Q 1259 2794 1537 2939 
Q 1816 3084 2150 3084 
Q 2853 3084 3261 2657 
Q 3669 2231 3669 1497 
Q 3669 778 3244 343 
Q 2819 -91 2113 -91 
Q 1303 -91 875 529 
Q 447 1150 447 2328 
Q 447 3434 972 4092 
Q 1497 4750 2381 4750 
Q 2619 4750 2861 4703 
Q 3103 4656 3366 4563 
z
" transform="scale(0.015625)"/>
       </defs>
       <use xlink:href="#DejaVuSans-32"/>
       <use xlink:href="#DejaVuSans-36" transform="translate(63.623047 0)"/>
       <use xlink:href="#DejaVuSans-30" transform="translate(127.246094 0)"/>
      </g>
     </g>
    </g>
    <g id="ytick_6">
     <g id="line2d_11">
      <g>
       <use xlink:href="#m79e578801f" x="54.654375" y="81.882276" style="stroke: #000000; stroke-width: 0.8"/>
      </g>
     </g>
     <g id="text_12">
      <!-- 265 -->
      <g transform="translate(24.749375 86.441338) scale(0.12 -0.12)">
       <use xlink:href="#DejaVuSans-32"/>
       <use xlink:href="#DejaVuSans-36" transform="translate(63.623047 0)"/>
       <use xlink:href="#DejaVuSans-35" transform="translate(127.246094 0)"/>
      </g>
     </g>
    </g>
    <g id="ytick_7">
     <g id="line2d_12">
      <g>
       <use xlink:href="#m79e578801f" x="54.654375" y="39.673736" style="stroke: #000000; stroke-width: 0.8"/>
      </g>
     </g>
     <g id="text_13">
      <!-- 270 -->
      <g transform="translate(24.749375 44.232799) scale(0.12 -0.12)">
       <defs>
        <path id="DejaVuSans-37" d="M 525 4666 
L 3525 4666 
L 3525 4397 
L 1831 0 
L 1172 0 
L 2766 4134 
L 525 4134 
L 525 4666 
z
" transform="scale(0.015625)"/>
       </defs>
       <use xlink:href="#DejaVuSans-32"/>
       <use xlink:href="#DejaVuSans-37" transform="translate(63.623047 0)"/>
       <use xlink:href="#DejaVuSans-30" transform="translate(127.246094 0)"/>
      </g>
     </g>
    </g>
    <g id="text_14">
     <!-- Boil-off Gas Temperature / K -->
     <g transform="translate(17.837812 258.157344) rotate(-90) scale(0.14 -0.14)">
      <defs>
       <path id="DejaVuSans-42" d="M 1259 2228 
L 1259 519 
L 2272 519 
Q 2781 519 3026 730 
Q 3272 941 3272 1375 
Q 3272 1813 3026 2020 
Q 2781 2228 2272 2228 
L 1259 2228 
z
M 1259 4147 
L 1259 2741 
L 2194 2741 
Q 2656 2741 2882 2914 
Q 3109 3088 3109 3444 
Q 3109 3797 2882 3972 
Q 2656 4147 2194 4147 
L 1259 4147 
z
M 628 4666 
L 2241 4666 
Q 2963 4666 3353 4366 
Q 3744 4066 3744 3513 
Q 3744 3084 3544 2831 
Q 3344 2578 2956 2516 
Q 3422 2416 3680 2098 
Q 3938 1781 3938 1306 
Q 3938 681 3513 340 
Q 3088 0 2303 0 
L 628 0 
L 628 4666 
z
" transform="scale(0.015625)"/>
       <path id="DejaVuSans-6f" d="M 1959 3097 
Q 1497 3097 1228 2736 
Q 959 2375 959 1747 
Q 959 1119 1226 758 
Q 1494 397 1959 397 
Q 2419 397 2687 759 
Q 2956 1122 2956 1747 
Q 2956 2369 2687 2733 
Q 2419 3097 1959 3097 
z
M 1959 3584 
Q 2709 3584 3137 3096 
Q 3566 2609 3566 1747 
Q 3566 888 3137 398 
Q 2709 -91 1959 -91 
Q 1206 -91 779 398 
Q 353 888 353 1747 
Q 353 2609 779 3096 
Q 1206 3584 1959 3584 
z
" transform="scale(0.015625)"/>
       <path id="DejaVuSans-6c" d="M 603 4863 
L 1178 4863 
L 1178 0 
L 603 0 
L 603 4863 
z
" transform="scale(0.015625)"/>
       <path id="DejaVuSans-2d" d="M 313 2009 
L 1997 2009 
L 1997 1497 
L 313 1497 
L 313 2009 
z
" transform="scale(0.015625)"/>
       <path id="DejaVuSans-66" d="M 2375 4863 
L 2375 4384 
L 1825 4384 
Q 1516 4384 1395 4259 
Q 1275 4134 1275 3809 
L 1275 3500 
L 2222 3500 
L 2222 3053 
L 1275 3053 
L 1275 0 
L 697 0 
L 697 3053 
L 147 3053 
L 147 3500 
L 697 3500 
L 697 3744 
Q 697 4328 969 4595 
Q 1241 4863 1831 4863 
L 2375 4863 
z
" transform="scale(0.015625)"/>
       <path id="DejaVuSans-47" d="M 3809 666 
L 3809 1919 
L 2778 1919 
L 2778 2438 
L 4434 2438 
L 4434 434 
Q 4069 175 3628 42 
Q 3188 -91 2688 -91 
Q 1594 -91 976 548 
Q 359 1188 359 2328 
Q 359 3472 976 4111 
Q 1594 4750 2688 4750 
Q 3144 4750 3555 4637 
Q 3966 4525 4313 4306 
L 4313 3634 
Q 3963 3931 3569 4081 
Q 3175 4231 2741 4231 
Q 1884 4231 1454 3753 
Q 1025 3275 1025 2328 
Q 1025 1384 1454 906 
Q 1884 428 2741 428 
Q 3075 428 3337 486 
Q 3600 544 3809 666 
z
" transform="scale(0.015625)"/>
       <path id="DejaVuSans-61" d="M 2194 1759 
Q 1497 1759 1228 1600 
Q 959 1441 959 1056 
Q 959 750 1161 570 
Q 1363 391 1709 391 
Q 2188 391 2477 730 
Q 2766 1069 2766 1631 
L 2766 1759 
L 2194 1759 
z
M 3341 1997 
L 3341 0 
L 2766 0 
L 2766 531 
Q 2569 213 2275 61 
Q 1981 -91 1556 -91 
Q 1019 -91 701 211 
Q 384 513 384 1019 
Q 384 1609 779 1909 
Q 1175 2209 1959 2209 
L 2766 2209 
L 2766 2266 
Q 2766 2663 2505 2880 
Q 2244 3097 1772 3097 
Q 1472 3097 1187 3025 
Q 903 2953 641 2809 
L 641 3341 
Q 956 3463 1253 3523 
Q 1550 3584 1831 3584 
Q 2591 3584 2966 3190 
Q 3341 2797 3341 1997 
z
" transform="scale(0.015625)"/>
       <path id="DejaVuSans-73" d="M 2834 3397 
L 2834 2853 
Q 2591 2978 2328 3040 
Q 2066 3103 1784 3103 
Q 1356 3103 1142 2972 
Q 928 2841 928 2578 
Q 928 2378 1081 2264 
Q 1234 2150 1697 2047 
L 1894 2003 
Q 2506 1872 2764 1633 
Q 3022 1394 3022 966 
Q 3022 478 2636 193 
Q 2250 -91 1575 -91 
Q 1294 -91 989 -36 
Q 684 19 347 128 
L 347 722 
Q 666 556 975 473 
Q 1284 391 1588 391 
Q 1994 391 2212 530 
Q 2431 669 2431 922 
Q 2431 1156 2273 1281 
Q 2116 1406 1581 1522 
L 1381 1569 
Q 847 1681 609 1914 
Q 372 2147 372 2553 
Q 372 3047 722 3315 
Q 1072 3584 1716 3584 
Q 2034 3584 2315 3537 
Q 2597 3491 2834 3397 
z
" transform="scale(0.015625)"/>
       <path id="DejaVuSans-70" d="M 1159 525 
L 1159 -1331 
L 581 -1331 
L 581 3500 
L 1159 3500 
L 1159 2969 
Q 1341 3281 1617 3432 
Q 1894 3584 2278 3584 
Q 2916 3584 3314 3078 
Q 3713 2572 3713 1747 
Q 3713 922 3314 415 
Q 2916 -91 2278 -91 
Q 1894 -91 1617 61 
Q 1341 213 1159 525 
z
M 3116 1747 
Q 3116 2381 2855 2742 
Q 2594 3103 2138 3103 
Q 1681 3103 1420 2742 
Q 1159 2381 1159 1747 
Q 1159 1113 1420 752 
Q 1681 391 2138 391 
Q 2594 391 2855 752 
Q 3116 1113 3116 1747 
z
" transform="scale(0.015625)"/>
       <path id="DejaVuSans-72" d="M 2631 2963 
Q 2534 3019 2420 3045 
Q 2306 3072 2169 3072 
Q 1681 3072 1420 2755 
Q 1159 2438 1159 1844 
L 1159 0 
L 581 0 
L 581 3500 
L 1159 3500 
L 1159 2956 
Q 1341 3275 1631 3429 
Q 1922 3584 2338 3584 
Q 2397 3584 2469 3576 
Q 2541 3569 2628 3553 
L 2631 2963 
z
" transform="scale(0.015625)"/>
       <path id="DejaVuSans-74" d="M 1172 4494 
L 1172 3500 
L 2356 3500 
L 2356 3053 
L 1172 3053 
L 1172 1153 
Q 1172 725 1289 603 
Q 1406 481 1766 481 
L 2356 481 
L 2356 0 
L 1766 0 
Q 1100 0 847 248 
Q 594 497 594 1153 
L 594 3053 
L 172 3053 
L 172 3500 
L 594 3500 
L 594 4494 
L 1172 4494 
z
" transform="scale(0.015625)"/>
       <path id="DejaVuSans-75" d="M 544 1381 
L 544 3500 
L 1119 3500 
L 1119 1403 
Q 1119 906 1312 657 
Q 1506 409 1894 409 
Q 2359 409 2629 706 
Q 2900 1003 2900 1516 
L 2900 3500 
L 3475 3500 
L 3475 0 
L 2900 0 
L 2900 538 
Q 2691 219 2414 64 
Q 2138 -91 1772 -91 
Q 1169 -91 856 284 
Q 544 659 544 1381 
z
M 1991 3584 
L 1991 3584 
z
" transform="scale(0.015625)"/>
       <path id="DejaVuSans-4b" d="M 628 4666 
L 1259 4666 
L 1259 2694 
L 3353 4666 
L 4166 4666 
L 1850 2491 
L 4331 0 
L 3500 0 
L 1259 2247 
L 1259 0 
L 628 0 
L 628 4666 
z
" transform="scale(0.015625)"/>
      </defs>
      <use xlink:href="#DejaVuSans-42"/>
      <use xlink:href="#DejaVuSans-6f" transform="translate(68.603516 0)"/>
      <use xlink:href="#DejaVuSans-69" transform="translate(129.785156 0)"/>
      <use xlink:href="#DejaVuSans-6c" transform="translate(157.568359 0)"/>
      <use xlink:href="#DejaVuSans-2d" transform="translate(185.351562 0)"/>
      <use xlink:href="#DejaVuSans-6f" transform="translate(223.310547 0)"/>
      <use xlink:href="#DejaVuSans-66" transform="translate(284.492188 0)"/>
      <use xlink:href="#DejaVuSans-66" transform="translate(319.697266 0)"/>
      <use xlink:href="#DejaVuSans-20" transform="translate(354.902344 0)"/>
      <use xlink:href="#DejaVuSans-47" transform="translate(386.689453 0)"/>
      <use xlink:href="#DejaVuSans-61" transform="translate(464.179688 0)"/>
      <use xlink:href="#DejaVuSans-73" transform="translate(525.458984 0)"/>
      <use xlink:href="#DejaVuSans-20" transform="translate(577.558594 0)"/>
      <use xlink:href="#DejaVuSans-54" transform="translate(609.345703 0)"/>
      <use xlink:href="#DejaVuSans-65" transform="translate(653.429688 0)"/>
      <use xlink:href="#DejaVuSans-6d" transform="translate(714.953125 0)"/>
      <use xlink:href="#DejaVuSans-70" transform="translate(812.365234 0)"/>
      <use xlink:href="#DejaVuSans-65" transform="translate(875.841797 0)"/>
      <use xlink:href="#DejaVuSans-72" transform="translate(937.365234 0)"/>
      <use xlink:href="#DejaVuSans-61" transform="translate(978.478516 0)"/>
      <use xlink:href="#DejaVuSans-74" transform="translate(1039.757812 0)"/>
      <use xlink:href="#DejaVuSans-75" transform="translate(1078.966797 0)"/>
      <use xlink:href="#DejaVuSans-72" transform="translate(1142.345703 0)"/>
      <use xlink:href="#DejaVuSans-65" transform="translate(1181.208984 0)"/>
      <use xlink:href="#DejaVuSans-20" transform="translate(1242.732422 0)"/>
      <use xlink:href="#DejaVuSans-2f" transform="translate(1274.519531 0)"/>
      <use xlink:href="#DejaVuSans-20" transform="translate(1308.210938 0)"/>
      <use xlink:href="#DejaVuSans-4b" transform="translate(1339.998047 0)"/>
     </g>
    </g>
   </g>
   <g id="line2d_13">
    <path d="M 54.46228 292.249386 
L 56.383234 281.091277 
L 60.033046 259.506403 
L 61.56981 251.941171 
L 63.106573 245.583925 
L 65.603813 236.557215 
L 67.332672 229.846604 
L 68.869435 222.905084 
L 70.982484 212.069942 
L 73.479724 199.38718 
L 74.824392 193.597977 
L 76.16906 188.799701 
L 77.513728 184.819383 
L 80.971445 175.106051 
L 82.316113 170.338601 
L 83.852876 163.994915 
L 87.502689 148.375835 
L 88.655261 144.438188 
L 89.807834 141.247163 
L 90.960406 138.702118 
L 92.88136 135.166672 
L 94.226028 132.504123 
L 95.3786 129.712313 
L 96.531173 126.329636 
L 98.067936 121.047859 
L 100.949367 110.915166 
L 102.10194 107.674443 
L 103.062417 105.541024 
L 104.022894 103.909213 
L 104.983371 102.676398 
L 108.441088 98.721818 
L 109.401565 97.007913 
L 110.554137 94.392439 
L 111.898805 90.719414 
L 114.780236 82.66443 
L 115.740713 80.59538 
L 116.70119 79.031696 
L 117.469572 78.146711 
L 118.237953 77.544478 
L 119.19843 77.076364 
L 121.503575 76.129479 
L 122.271957 75.526152 
L 123.040338 74.663145 
L 124.000815 73.187964 
L 125.153388 70.895086 
L 129.187391 62.182018 
L 130.147868 60.930313 
L 130.91625 60.294163 
L 131.684632 59.958776 
L 132.453013 59.865654 
L 133.605586 59.988218 
L 134.950253 60.109993 
L 135.718635 59.975203 
L 136.487017 59.597202 
L 137.255398 58.935988 
L 138.02378 57.987589 
L 138.984257 56.450957 
L 140.713116 53.148072 
L 142.249879 50.413594 
L 143.210356 49.151231 
L 143.978737 48.482782 
L 144.747119 48.133758 
L 145.515501 48.07949 
L 146.283882 48.26121 
L 147.62855 48.879502 
L 148.781122 49.353757 
L 149.549504 49.466241 
L 150.317886 49.329442 
L 151.086267 48.903719 
L 151.854649 48.185506 
L 152.815126 46.92978 
L 154.351889 44.436924 
L 155.888652 42.04935 
L 156.849129 40.955432 
L 157.617511 40.406497 
L 158.385893 40.173173 
L 159.154274 40.239783 
L 159.922656 40.555408 
L 161.075228 41.315211 
L 162.611991 42.324703 
L 163.380373 42.602225 
L 164.148755 42.62622 
L 164.917136 42.357311 
L 165.685518 41.792218 
L 166.645995 40.723134 
L 167.990663 38.80668 
L 169.719521 36.409059 
L 170.679998 35.483118 
L 171.44838 35.065412 
L 172.024666 34.957572 
L 172.793048 35.078735 
L 173.561429 35.461589 
L 174.714002 36.359307 
L 176.44286 37.76224 
L 177.211242 38.147939 
L 177.979624 38.277265 
L 178.55591 38.181095 
L 179.324291 37.789112 
L 180.092673 37.120249 
L 181.245246 35.733124 
L 183.55039 32.754787 
L 184.510867 31.938357 
L 185.279249 31.60615 
L 185.855535 31.561163 
L 186.623917 31.764383 
L 187.392298 32.227246 
L 188.544871 33.241059 
L 190.273729 34.809359 
L 191.042111 35.265303 
L 191.810493 35.463003 
L 192.386779 35.416954 
L 193.155161 35.090361 
L 193.923542 34.485355 
L 194.884019 33.429389 
L 197.573355 30.210466 
L 198.341736 29.645383 
L 199.110118 29.368519 
L 199.686404 29.364207 
L 200.454786 29.62052 
L 201.223167 30.13514 
L 202.37574 31.224032 
L 204.104598 32.899236 
L 204.87298 33.400578 
L 205.641362 33.642459 
L 206.217648 33.628794 
L 206.98603 33.344439 
L 207.754411 32.780675 
L 208.714888 31.774976 
L 211.404224 28.689991 
L 212.172605 28.161414 
L 212.940987 27.920258 
L 213.517273 27.942189 
L 214.285655 28.232752 
L 215.054036 28.780757 
L 216.206609 29.918077 
L 217.935467 31.662226 
L 218.703849 32.192843 
L 219.472231 32.46321 
L 220.048517 32.470422 
L 220.816899 32.213296 
L 221.58528 31.676115 
L 222.545757 30.702811 
L 225.235093 27.704124 
L 226.003474 27.199067 
L 226.771856 26.980915 
L 227.348142 27.019751 
L 228.116524 27.332381 
L 228.884905 27.901894 
L 230.037478 29.070414 
L 231.766336 30.858983 
L 232.726814 31.507193 
L 233.495195 31.723275 
L 234.071481 31.68621 
L 234.839863 31.372773 
L 235.608245 30.79056 
L 236.760817 29.565031 
L 238.873866 27.224009 
L 239.642248 26.669937 
L 240.41063 26.391533 
L 240.986916 26.383232 
L 241.755297 26.637902 
L 242.523679 27.162961 
L 243.676251 28.304772 
L 245.789301 30.496575 
L 246.557683 30.998413 
L 247.326064 31.226233 
L 247.90235 31.197772 
L 248.670732 30.895557 
L 249.439114 30.3243 
L 250.591686 29.114752 
L 252.704735 26.801748 
L 253.473117 26.257473 
L 254.241499 25.988655 
L 254.817785 25.987403 
L 255.586166 26.251277 
L 256.354548 26.785313 
L 257.50712 27.940153 
L 259.62017 30.154482 
L 260.388552 30.66409 
L 261.156933 30.89947 
L 261.733219 30.87655 
L 262.501601 30.581559 
L 263.269983 30.017356 
L 264.422555 28.818092 
L 266.535604 26.523116 
L 267.303986 25.985145 
L 268.072368 25.722496 
L 268.648654 25.725782 
L 269.417035 25.995581 
L 270.185417 26.535398 
L 271.33799 27.698632 
L 273.451039 29.927476 
L 274.219421 30.442091 
L 274.987802 30.682342 
L 275.564088 30.66299 
L 276.33247 30.372652 
L 277.100852 29.812989 
L 278.253424 28.620342 
L 280.366473 26.336963 
L 281.134855 25.803048 
L 281.903237 25.54437 
L 282.479523 25.550575 
L 283.247904 25.82419 
L 284.016286 26.367732 
L 285.168859 27.536375 
L 287.281908 29.774579 
L 288.05029 30.292421 
L 288.818671 30.535811 
L 289.394957 30.518758 
L 290.163339 30.231417 
L 290.931721 29.674676 
L 292.084293 28.486287 
L 294.197342 26.210365 
L 294.965724 25.679058 
L 295.734106 25.422934 
L 296.310392 25.431019 
L 297.078773 25.707092 
L 297.847155 26.253033 
L 298.999728 27.425165 
L 301.112777 29.669407 
L 301.881159 30.189332 
L 302.64954 30.434747 
L 303.225826 30.419176 
L 303.994208 30.133765 
L 304.76259 29.578905 
L 305.915162 28.393254 
L 308.028211 26.122125 
L 308.796593 25.592493 
L 309.564975 25.338012 
L 310.141261 25.347307 
L 310.909643 25.624962 
L 311.678024 26.172451 
L 312.830597 27.346834 
L 314.943646 29.594979 
L 315.712028 30.116248 
L 316.480409 30.36297 
L 317.056695 30.348355 
L 317.825077 30.064187 
L 318.593459 29.510538 
L 319.746031 28.326646 
L 321.85908 26.058592 
L 322.627462 25.530038 
L 323.395844 25.276613 
L 323.97213 25.286686 
L 324.740512 25.56536 
L 325.508893 26.113847 
L 326.661466 27.289685 
L 328.774515 29.540355 
L 329.542897 30.062495 
L 330.311278 30.310061 
L 330.887564 30.296063 
L 331.655946 30.012697 
L 332.424328 29.459826 
L 333.5769 28.277064 
L 335.689949 26.01098 
L 336.458331 25.483116 
L 337.226713 25.230368 
L 337.802999 25.240941 
L 338.571381 25.520273 
L 339.339762 26.069404 
L 340.492335 27.246184 
L 342.413289 29.33168 
L 342.413289 29.33168 
" clip-path="url(#p92c08adfef)" style="fill: none; stroke: #781c6d; stroke-width: 1.5; stroke-linecap: square"/>
   </g>
   <g id="line2d_14">
    <path d="M 54.46228 292.283902 
L 58.880474 269.499955 
L 63.106573 248.883223 
L 67.140576 230.281155 
L 71.17458 212.720243 
L 75.016488 196.945041 
L 78.858396 182.076799 
L 82.700304 168.100952 
L 86.350116 155.643861 
L 89.999929 143.9829 
L 93.457646 133.667281 
L 96.915364 124.05743 
L 100.180985 115.619238 
L 103.446607 107.785991 
L 106.712229 100.538383 
L 109.785756 94.231465 
L 112.859282 88.400438 
L 115.932809 83.021745 
L 119.006335 78.069636 
L 122.079861 73.519028 
L 125.153388 69.343541 
L 128.226914 65.517331 
L 131.492536 61.807247 
L 134.758158 58.434297 
L 138.02378 55.371393 
L 141.481497 52.437243 
L 144.939214 49.792136 
L 148.589027 47.284537 
L 152.430935 44.929184 
L 156.272843 42.834754 
L 160.306847 40.885951 
L 164.532945 39.088245 
L 169.143235 37.377137 
L 173.94562 35.836667 
L 179.132196 34.41151 
L 184.702963 33.11609 
L 190.850016 31.924388 
L 197.573355 30.857039 
L 204.87298 29.92461 
L 213.133082 29.095072 
L 222.929948 28.349907 
L 234.647768 27.708735 
L 247.90235 27.212031 
L 265.959318 26.786351 
L 289.971244 26.475865 
L 328.774515 26.25038 
L 342.413289 26.207279 
L 342.413289 26.207279 
" clip-path="url(#p92c08adfef)" style="fill: none; stroke-dasharray: 5.55,2.4; stroke-dashoffset: 0; stroke: #781c6d; stroke-width: 1.5"/>
   </g>
   <g id="line2d_15">
    <path d="M 54.46228 292.260006 
L 55.422757 287.727309 
L 56.383234 284.358132 
L 57.343711 281.829178 
L 58.112092 280.31293 
L 58.880474 279.216641 
L 59.648855 278.518556 
L 60.225142 278.237155 
L 60.993523 278.145644 
L 61.761905 278.316683 
L 62.914477 278.881019 
L 64.643336 279.791716 
L 65.603813 280.019494 
L 66.372195 279.960084 
L 67.140576 279.66344 
L 67.908958 279.142323 
L 69.06153 278.041044 
L 71.55877 275.508226 
L 72.327152 275.034641 
L 73.095534 274.813721 
L 73.863915 274.865545 
L 74.632297 275.177768 
L 75.592774 275.86632 
L 79.050491 278.780281 
L 79.818873 279.016622 
L 80.587254 278.992117 
L 81.355636 278.707042 
L 82.316113 278.035479 
L 83.660781 276.740329 
L 85.197544 275.307691 
L 86.158021 274.731482 
L 86.926403 274.544219 
L 87.694784 274.625477 
L 88.463166 274.963809 
L 89.423643 275.681205 
L 92.88136 278.670916 
L 93.649742 278.91859 
L 94.418123 278.903506 
L 95.186505 278.626025 
L 95.954887 278.118063 
L 97.107459 277.061613 
L 99.028413 275.243063 
L 99.98889 274.667638 
L 100.757272 274.480792 
L 101.525653 274.562535 
L 102.294035 274.901588 
L 103.254512 275.620363 
L 106.712229 278.618514 
L 107.480611 278.868042 
L 108.248992 278.854468 
L 109.017374 278.578034 
L 109.785756 278.070575 
L 110.938328 277.013825 
L 112.859282 275.192586 
L 113.819759 274.615405 
L 114.588141 274.427284 
L 115.356522 274.508055 
L 116.124904 274.846566 
L 117.085381 275.565371 
L 120.543098 278.568716 
L 121.31148 278.819648 
L 122.079861 278.807216 
L 122.848243 278.531522 
L 123.616625 278.024317 
L 124.769197 276.966982 
L 126.690151 275.142735 
L 127.650628 274.563679 
L 128.41901 274.374208 
L 129.187391 274.453938 
L 129.955773 274.791843 
L 130.91625 275.510613 
L 134.373967 278.518984 
L 135.142349 278.771299 
L 135.91073 278.75999 
L 136.679112 278.485027 
L 137.447494 277.978069 
L 138.600066 276.920142 
L 140.52102 275.092884 
L 141.481497 274.511955 
L 142.249879 274.321127 
L 143.01826 274.399812 
L 143.786642 274.73711 
L 144.747119 275.45583 
L 148.204836 278.469202 
L 148.973218 278.722899 
L 149.741599 278.712712 
L 150.509981 278.438481 
L 151.278363 277.931774 
L 152.430935 276.873263 
L 154.351889 275.043003 
L 155.312366 274.460206 
L 156.080748 274.268023 
L 156.849129 274.345661 
L 157.617511 274.682348 
L 158.577988 275.401018 
L 162.035705 278.419366 
L 162.804087 278.674442 
L 163.572468 278.665381 
L 164.34085 278.391883 
L 165.109232 277.885429 
L 166.261804 276.826341 
L 168.182758 274.993096 
L 169.143235 274.408429 
L 169.911617 274.214895 
L 170.679998 274.291486 
L 171.44838 274.627556 
L 172.408857 275.34617 
L 175.866574 278.369475 
L 176.634956 278.62593 
L 177.403337 278.617992 
L 178.171719 278.345231 
L 178.940101 277.839035 
L 180.092673 276.779379 
L 182.013627 274.943159 
L 182.974104 274.35663 
L 183.742486 274.161742 
L 184.510867 274.237285 
L 185.279249 274.572738 
L 186.239726 275.291287 
L 189.697443 278.31953 
L 190.465825 278.577362 
L 191.234206 278.570548 
L 192.002588 278.298527 
L 192.77097 277.792593 
L 193.923542 276.732374 
L 195.844496 274.893192 
L 196.804973 274.304806 
L 197.573355 274.108565 
L 198.341736 274.183058 
L 199.110118 274.517891 
L 200.070595 275.236374 
L 203.528312 278.269531 
L 204.296694 278.528738 
L 205.065075 278.52305 
L 205.833457 278.251769 
L 206.601839 277.7461 
L 207.754411 276.685328 
L 209.675365 274.843198 
L 210.635842 274.252953 
L 211.404224 274.055365 
L 212.172605 274.128807 
L 212.940987 274.463015 
L 213.901464 275.181426 
L 217.359181 278.219477 
L 218.127563 278.480059 
L 218.895945 278.475498 
L 219.664326 278.204957 
L 220.432708 277.699559 
L 221.58528 276.638241 
L 223.506234 274.793175 
L 224.466711 274.201078 
L 225.235093 274.00214 
L 226.003474 274.07453 
L 226.771856 274.408113 
L 227.732333 275.126443 
L 229.653287 277.006098 
L 230.805859 277.947853 
L 231.574241 278.332201 
L 232.342623 278.463602 
L 233.111004 278.325078 
L 233.879386 277.93182 
L 234.839863 277.154761 
L 237.913389 274.34518 
L 238.681771 274.015761 
L 239.450153 273.950454 
L 240.218534 274.155907 
L 240.986916 274.605893 
L 242.139488 275.611841 
L 244.444633 277.765881 
L 245.213015 278.208674 
L 245.981396 278.407458 
L 246.749778 278.337299 
L 247.51816 278.005189 
L 248.478637 277.283198 
L 250.207495 275.563385 
L 251.360068 274.547415 
L 252.128449 274.097251 
L 252.896831 273.895617 
L 253.665212 273.965901 
L 254.433594 274.298224 
L 255.394071 275.016383 
L 257.315025 276.900089 
L 258.467598 277.846023 
L 259.235979 278.23324 
L 260.004361 278.367173 
L 260.772742 278.230553 
L 261.541124 277.838341 
L 262.501601 277.061185 
L 265.575127 274.242771 
L 266.343509 273.910483 
L 267.111891 273.842736 
L 267.880272 274.046481 
L 268.648654 274.495683 
L 269.801226 275.50236 
L 272.106371 277.66322 
L 272.874753 278.108906 
L 273.643134 278.310335 
L 274.411516 278.242262 
L 275.179898 277.911435 
L 276.140375 277.189676 
L 277.869233 275.466501 
L 279.021806 274.446432 
L 279.790187 273.993326 
L 280.558569 273.788997 
L 281.32695 273.857173 
L 282.095332 274.188227 
L 283.055809 274.906188 
L 284.976763 276.793899 
L 286.129336 277.743988 
L 286.897717 278.134058 
L 287.666099 278.270526 
L 288.43448 278.135814 
L 289.202862 277.744655 
L 290.163339 276.967429 
L 293.236865 274.140255 
L 294.005247 273.80511 
L 294.773629 273.734924 
L 295.54201 273.936948 
L 296.310392 274.385357 
L 297.270869 275.205929 
L 299.960205 277.692891 
L 300.728586 278.084388 
L 301.496968 278.222119 
L 302.265349 278.088363 
L 303.033731 277.697739 
L 303.994208 276.920484 
L 307.067734 274.088958 
L 307.836116 273.752386 
L 308.604498 273.680982 
L 309.372879 273.882145 
L 310.141261 274.330149 
L 311.101738 275.150929 
L 313.791074 277.641744 
L 314.559455 278.034663 
L 315.327837 278.173659 
L 316.096218 278.040861 
L 316.8646 277.650769 
L 317.825077 276.873495 
L 320.898603 274.037634 
L 321.666985 273.699639 
L 322.435367 273.627017 
L 323.203748 273.827312 
L 323.97213 274.274913 
L 324.932607 275.095893 
L 327.621943 277.590547 
L 328.390324 277.984884 
L 329.158706 278.125145 
L 329.927087 277.993304 
L 330.695469 277.60375 
L 331.655946 276.826458 
L 334.729472 273.986286 
L 335.497854 273.646868 
L 336.266236 273.573025 
L 337.034617 273.772458 
L 337.802999 274.219649 
L 338.763476 275.040823 
L 341.452812 277.539297 
L 342.221193 277.935053 
L 342.413289 277.99552 
L 342.413289 277.99552 
" clip-path="url(#p92c08adfef)" style="fill: none; stroke: #ed6925; stroke-width: 1.5; stroke-linecap: square"/>
   </g>
   <g id="line2d_16">
    <path d="M 54.46228 292.284276 
L 55.614852 286.823418 
L 56.383234 284.175844 
L 57.151615 282.211841 
L 57.919997 280.761707 
L 58.880474 279.472203 
L 59.840951 278.591196 
L 60.801428 277.988738 
L 61.954 277.511791 
L 63.490764 277.135379 
L 65.603813 276.877357 
L 69.06153 276.723314 
L 78.6663 276.642355 
L 137.447494 276.43284 
L 175.482383 276.296356 
L 228.69281 276.106241 
L 342.413289 275.697777 
L 342.413289 275.697777 
" clip-path="url(#p92c08adfef)" style="fill: none; stroke-dasharray: 5.55,2.4; stroke-dashoffset: 0; stroke: #ed6925; stroke-width: 1.5"/>
   </g>
   <g id="patch_3">
    <path d="M 54.654375 307.779062 
L 54.654375 11.759062 
" style="fill: none; stroke: #000000; stroke-width: 0.8; stroke-linejoin: miter; stroke-linecap: square"/>
   </g>
   <g id="patch_4">
    <path d="M 342.221193 307.779062 
L 342.221193 11.759062 
" style="fill: none; stroke: #000000; stroke-width: 0.8; stroke-linejoin: miter; stroke-linecap: square"/>
   </g>
   <g id="patch_5">
    <path d="M 54.654375 307.779062 
L 342.221193 307.779062 
" style="fill: none; stroke: #000000; stroke-width: 0.8; stroke-linejoin: miter; stroke-linecap: square"/>
   </g>
   <g id="patch_6">
    <path d="M 54.654375 11.759062 
L 342.221193 11.759062 
" style="fill: none; stroke: #000000; stroke-width: 0.8; stroke-linejoin: miter; stroke-linecap: square"/>
   </g>
  </g>
  <g id="axes_2">
   <g id="patch_7">
    <path d="M 426.841193 307.779062 
L 714.408011 307.779062 
L 714.408011 11.759062 
L 426.841193 11.759062 
z
" style="fill: #ffffff"/>
   </g>
   <g id="matplotlib.axis_3">
    <g id="xtick_6">
     <g id="line2d_17">
      <g>
       <use xlink:href="#ma38cd2ff72" x="483.893528" y="307.779062" style="stroke: #000000; stroke-width: 0.8"/>
      </g>
     </g>
     <g id="text_15">
      <!-- 100 -->
      <g transform="translate(472.441028 323.897187) scale(0.12 -0.12)">
       <use xlink:href="#DejaVuSans-31"/>
       <use xlink:href="#DejaVuSans-30" transform="translate(63.623047 0)"/>
       <use xlink:href="#DejaVuSans-30" transform="translate(127.246094 0)"/>
      </g>
     </g>
    </g>
    <g id="xtick_7">
     <g id="line2d_18">
      <g>
       <use xlink:href="#ma38cd2ff72" x="541.522149" y="307.779062" style="stroke: #000000; stroke-width: 0.8"/>
      </g>
     </g>
     <g id="text_16">
      <!-- 200 -->
      <g transform="translate(530.069649 323.897187) scale(0.12 -0.12)">
       <use xlink:href="#DejaVuSans-32"/>
       <use xlink:href="#DejaVuSans-30" transform="translate(63.623047 0)"/>
       <use xlink:href="#DejaVuSans-30" transform="translate(127.246094 0)"/>
      </g>
     </g>
    </g>
    <g id="xtick_8">
     <g id="line2d_19">
      <g>
       <use xlink:href="#ma38cd2ff72" x="599.15077" y="307.779062" style="stroke: #000000; stroke-width: 0.8"/>
      </g>
     </g>
     <g id="text_17">
      <!-- 300 -->
      <g transform="translate(587.69827 323.897187) scale(0.12 -0.12)">
       <use xlink:href="#DejaVuSans-33"/>
       <use xlink:href="#DejaVuSans-30" transform="translate(63.623047 0)"/>
       <use xlink:href="#DejaVuSans-30" transform="translate(127.246094 0)"/>
      </g>
     </g>
    </g>
    <g id="xtick_9">
     <g id="line2d_20">
      <g>
       <use xlink:href="#ma38cd2ff72" x="656.77939" y="307.779062" style="stroke: #000000; stroke-width: 0.8"/>
      </g>
     </g>
     <g id="text_18">
      <!-- 400 -->
      <g transform="translate(645.32689 323.897187) scale(0.12 -0.12)">
       <use xlink:href="#DejaVuSans-34"/>
       <use xlink:href="#DejaVuSans-30" transform="translate(63.623047 0)"/>
       <use xlink:href="#DejaVuSans-30" transform="translate(127.246094 0)"/>
      </g>
     </g>
    </g>
    <g id="xtick_10">
     <g id="line2d_21">
      <g>
       <use xlink:href="#ma38cd2ff72" x="714.408011" y="307.779062" style="stroke: #000000; stroke-width: 0.8"/>
      </g>
     </g>
     <g id="text_19">
      <!-- 500 -->
      <g transform="translate(702.955511 323.897187) scale(0.12 -0.12)">
       <use xlink:href="#DejaVuSans-35"/>
       <use xlink:href="#DejaVuSans-30" transform="translate(63.623047 0)"/>
       <use xlink:href="#DejaVuSans-30" transform="translate(127.246094 0)"/>
      </g>
     </g>
    </g>
    <g id="text_20">
     <!-- Time / h -->
     <g transform="translate(542.253821 341.030625) scale(0.14 -0.14)">
      <use xlink:href="#DejaVuSans-54"/>
      <use xlink:href="#DejaVuSans-69" transform="translate(57.958984 0)"/>
      <use xlink:href="#DejaVuSans-6d" transform="translate(85.742188 0)"/>
      <use xlink:href="#DejaVuSans-65" transform="translate(183.154297 0)"/>
      <use xlink:href="#DejaVuSans-20" transform="translate(244.677734 0)"/>
      <use xlink:href="#DejaVuSans-2f" transform="translate(276.464844 0)"/>
      <use xlink:href="#DejaVuSans-20" transform="translate(310.15625 0)"/>
      <use xlink:href="#DejaVuSans-68" transform="translate(341.943359 0)"/>
     </g>
    </g>
   </g>
   <g id="matplotlib.axis_4">
    <g id="ytick_8">
     <g id="line2d_22">
      <g>
       <use xlink:href="#m79e578801f" x="426.841193" y="307.779062" style="stroke: #000000; stroke-width: 0.8"/>
      </g>
     </g>
     <g id="text_21">
      <!-- 0.000 -->
      <g transform="translate(385.487443 312.338125) scale(0.12 -0.12)">
       <defs>
        <path id="DejaVuSans-2e" d="M 684 794 
L 1344 794 
L 1344 0 
L 684 0 
L 684 794 
z
" transform="scale(0.015625)"/>
       </defs>
       <use xlink:href="#DejaVuSans-30"/>
       <use xlink:href="#DejaVuSans-2e" transform="translate(63.623047 0)"/>
       <use xlink:href="#DejaVuSans-30" transform="translate(95.410156 0)"/>
       <use xlink:href="#DejaVuSans-30" transform="translate(159.033203 0)"/>
       <use xlink:href="#DejaVuSans-30" transform="translate(222.65625 0)"/>
      </g>
     </g>
    </g>
    <g id="ytick_9">
     <g id="line2d_23">
      <g>
       <use xlink:href="#m79e578801f" x="426.841193" y="248.575062" style="stroke: #000000; stroke-width: 0.8"/>
      </g>
     </g>
     <g id="text_22">
      <!-- 0.002 -->
      <g transform="translate(385.487443 253.134125) scale(0.12 -0.12)">
       <use xlink:href="#DejaVuSans-30"/>
       <use xlink:href="#DejaVuSans-2e" transform="translate(63.623047 0)"/>
       <use xlink:href="#DejaVuSans-30" transform="translate(95.410156 0)"/>
       <use xlink:href="#DejaVuSans-30" transform="translate(159.033203 0)"/>
       <use xlink:href="#DejaVuSans-32" transform="translate(222.65625 0)"/>
      </g>
     </g>
    </g>
    <g id="ytick_10">
     <g id="line2d_24">
      <g>
       <use xlink:href="#m79e578801f" x="426.841193" y="189.371062" style="stroke: #000000; stroke-width: 0.8"/>
      </g>
     </g>
     <g id="text_23">
      <!-- 0.004 -->
      <g transform="translate(385.487443 193.930125) scale(0.12 -0.12)">
       <use xlink:href="#DejaVuSans-30"/>
       <use xlink:href="#DejaVuSans-2e" transform="translate(63.623047 0)"/>
       <use xlink:href="#DejaVuSans-30" transform="translate(95.410156 0)"/>
       <use xlink:href="#DejaVuSans-30" transform="translate(159.033203 0)"/>
       <use xlink:href="#DejaVuSans-34" transform="translate(222.65625 0)"/>
      </g>
     </g>
    </g>
    <g id="ytick_11">
     <g id="line2d_25">
      <g>
       <use xlink:href="#m79e578801f" x="426.841193" y="130.167062" style="stroke: #000000; stroke-width: 0.8"/>
      </g>
     </g>
     <g id="text_24">
      <!-- 0.006 -->
      <g transform="translate(385.487443 134.726125) scale(0.12 -0.12)">
       <use xlink:href="#DejaVuSans-30"/>
       <use xlink:href="#DejaVuSans-2e" transform="translate(63.623047 0)"/>
       <use xlink:href="#DejaVuSans-30" transform="translate(95.410156 0)"/>
       <use xlink:href="#DejaVuSans-30" transform="translate(159.033203 0)"/>
       <use xlink:href="#DejaVuSans-36" transform="translate(222.65625 0)"/>
      </g>
     </g>
    </g>
    <g id="ytick_12">
     <g id="line2d_26">
      <g>
       <use xlink:href="#m79e578801f" x="426.841193" y="70.963062" style="stroke: #000000; stroke-width: 0.8"/>
      </g>
     </g>
     <g id="text_25">
      <!-- 0.008 -->
      <g transform="translate(385.487443 75.522125) scale(0.12 -0.12)">
       <defs>
        <path id="DejaVuSans-38" d="M 2034 2216 
Q 1584 2216 1326 1975 
Q 1069 1734 1069 1313 
Q 1069 891 1326 650 
Q 1584 409 2034 409 
Q 2484 409 2743 651 
Q 3003 894 3003 1313 
Q 3003 1734 2745 1975 
Q 2488 2216 2034 2216 
z
M 1403 2484 
Q 997 2584 770 2862 
Q 544 3141 544 3541 
Q 544 4100 942 4425 
Q 1341 4750 2034 4750 
Q 2731 4750 3128 4425 
Q 3525 4100 3525 3541 
Q 3525 3141 3298 2862 
Q 3072 2584 2669 2484 
Q 3125 2378 3379 2068 
Q 3634 1759 3634 1313 
Q 3634 634 3220 271 
Q 2806 -91 2034 -91 
Q 1263 -91 848 271 
Q 434 634 434 1313 
Q 434 1759 690 2068 
Q 947 2378 1403 2484 
z
M 1172 3481 
Q 1172 3119 1398 2916 
Q 1625 2713 2034 2713 
Q 2441 2713 2670 2916 
Q 2900 3119 2900 3481 
Q 2900 3844 2670 4047 
Q 2441 4250 2034 4250 
Q 1625 4250 1398 4047 
Q 1172 3844 1172 3481 
z
" transform="scale(0.015625)"/>
       </defs>
       <use xlink:href="#DejaVuSans-30"/>
       <use xlink:href="#DejaVuSans-2e" transform="translate(63.623047 0)"/>
       <use xlink:href="#DejaVuSans-30" transform="translate(95.410156 0)"/>
       <use xlink:href="#DejaVuSans-30" transform="translate(159.033203 0)"/>
       <use xlink:href="#DejaVuSans-38" transform="translate(222.65625 0)"/>
      </g>
     </g>
    </g>
    <g id="ytick_13">
     <g id="line2d_27">
      <g>
       <use xlink:href="#m79e578801f" x="426.841193" y="11.759062" style="stroke: #000000; stroke-width: 0.8"/>
      </g>
     </g>
     <g id="text_26">
      <!-- 0.010 -->
      <g transform="translate(385.487443 16.318125) scale(0.12 -0.12)">
       <use xlink:href="#DejaVuSans-30"/>
       <use xlink:href="#DejaVuSans-2e" transform="translate(63.623047 0)"/>
       <use xlink:href="#DejaVuSans-30" transform="translate(95.410156 0)"/>
       <use xlink:href="#DejaVuSans-31" transform="translate(159.033203 0)"/>
       <use xlink:href="#DejaVuSans-30" transform="translate(222.65625 0)"/>
      </g>
     </g>
    </g>
    <g id="text_27">
     <!-- Boil-off Rate / $kg\ h^{-1}$ -->
     <g transform="translate(378.547443 232.919062) rotate(-90) scale(0.14 -0.14)">
      <defs>
       <path id="DejaVuSans-52" d="M 2841 2188 
Q 3044 2119 3236 1894 
Q 3428 1669 3622 1275 
L 4263 0 
L 3584 0 
L 2988 1197 
Q 2756 1666 2539 1819 
Q 2322 1972 1947 1972 
L 1259 1972 
L 1259 0 
L 628 0 
L 628 4666 
L 2053 4666 
Q 2853 4666 3247 4331 
Q 3641 3997 3641 3322 
Q 3641 2881 3436 2590 
Q 3231 2300 2841 2188 
z
M 1259 4147 
L 1259 2491 
L 2053 2491 
Q 2509 2491 2742 2702 
Q 2975 2913 2975 3322 
Q 2975 3731 2742 3939 
Q 2509 4147 2053 4147 
L 1259 4147 
z
" transform="scale(0.015625)"/>
       <path id="DejaVuSans-Oblique-6b" d="M 1172 4863 
L 1747 4863 
L 1197 2028 
L 3169 3500 
L 3916 3500 
L 1716 1825 
L 3322 0 
L 2625 0 
L 1131 1709 
L 800 0 
L 225 0 
L 1172 4863 
z
" transform="scale(0.015625)"/>
       <path id="DejaVuSans-Oblique-67" d="M 3816 3500 
L 3219 434 
Q 3047 -456 2561 -893 
Q 2075 -1331 1253 -1331 
Q 950 -1331 690 -1286 
Q 431 -1241 206 -1147 
L 313 -588 
Q 525 -725 762 -790 
Q 1000 -856 1269 -856 
Q 1816 -856 2167 -557 
Q 2519 -259 2631 300 
L 2681 563 
Q 2441 288 2122 144 
Q 1803 0 1434 0 
Q 903 0 598 351 
Q 294 703 294 1319 
Q 294 1803 478 2267 
Q 663 2731 997 3091 
Q 1219 3328 1514 3456 
Q 1809 3584 2131 3584 
Q 2484 3584 2746 3420 
Q 3009 3256 3138 2956 
L 3238 3500 
L 3816 3500 
z
M 2950 2216 
Q 2950 2641 2750 2872 
Q 2550 3103 2181 3103 
Q 1953 3103 1747 3012 
Q 1541 2922 1394 2759 
Q 1156 2491 1023 2127 
Q 891 1763 891 1375 
Q 891 944 1092 712 
Q 1294 481 1672 481 
Q 2219 481 2584 976 
Q 2950 1472 2950 2216 
z
" transform="scale(0.015625)"/>
       <path id="DejaVuSans-Oblique-68" d="M 3566 2113 
L 3156 0 
L 2578 0 
L 2988 2091 
Q 3016 2238 3031 2350 
Q 3047 2463 3047 2528 
Q 3047 2791 2881 2937 
Q 2716 3084 2419 3084 
Q 1956 3084 1617 2771 
Q 1278 2459 1178 1941 
L 800 0 
L 225 0 
L 1172 4863 
L 1747 4863 
L 1375 2950 
Q 1594 3244 1934 3414 
Q 2275 3584 2650 3584 
Q 3113 3584 3367 3334 
Q 3622 3084 3622 2631 
Q 3622 2519 3608 2391 
Q 3594 2263 3566 2113 
z
" transform="scale(0.015625)"/>
       <path id="DejaVuSans-2212" d="M 678 2272 
L 4684 2272 
L 4684 1741 
L 678 1741 
L 678 2272 
z
" transform="scale(0.015625)"/>
      </defs>
      <use xlink:href="#DejaVuSans-42" transform="translate(0 0.684375)"/>
      <use xlink:href="#DejaVuSans-6f" transform="translate(68.603516 0.684375)"/>
      <use xlink:href="#DejaVuSans-69" transform="translate(129.785156 0.684375)"/>
      <use xlink:href="#DejaVuSans-6c" transform="translate(157.568359 0.684375)"/>
      <use xlink:href="#DejaVuSans-2d" transform="translate(185.351562 0.684375)"/>
      <use xlink:href="#DejaVuSans-6f" transform="translate(221.435547 0.684375)"/>
      <use xlink:href="#DejaVuSans-66" transform="translate(282.617188 0.684375)"/>
      <use xlink:href="#DejaVuSans-66" transform="translate(317.822266 0.684375)"/>
      <use xlink:href="#DejaVuSans-20" transform="translate(353.027344 0.684375)"/>
      <use xlink:href="#DejaVuSans-52" transform="translate(384.814453 0.684375)"/>
      <use xlink:href="#DejaVuSans-61" transform="translate(454.296875 0.684375)"/>
      <use xlink:href="#DejaVuSans-74" transform="translate(515.576172 0.684375)"/>
      <use xlink:href="#DejaVuSans-65" transform="translate(554.785156 0.684375)"/>
      <use xlink:href="#DejaVuSans-20" transform="translate(616.308594 0.684375)"/>
      <use xlink:href="#DejaVuSans-2f" transform="translate(648.095703 0.684375)"/>
      <use xlink:href="#DejaVuSans-20" transform="translate(681.787109 0.684375)"/>
      <use xlink:href="#DejaVuSans-Oblique-6b" transform="translate(713.574219 0.684375)"/>
      <use xlink:href="#DejaVuSans-Oblique-67" transform="translate(771.484375 0.684375)"/>
      <use xlink:href="#DejaVuSans-Oblique-68" transform="translate(867.431316 0.684375)"/>
      <use xlink:href="#DejaVuSans-2212" transform="translate(938.257931 38.965625) scale(0.7)"/>
      <use xlink:href="#DejaVuSans-31" transform="translate(996.910274 38.965625) scale(0.7)"/>
     </g>
    </g>
   </g>
   <g id="line2d_28">
    <path d="M 426.658311 -1 
L 427.033289 62.363049 
L 427.417479 90.011268 
L 427.993766 111.618183 
L 428.570052 124.25819 
L 429.338433 135.744346 
L 430.683101 151.422998 
L 434.717105 195.201943 
L 435.677582 202.444955 
L 436.253868 205.518717 
L 436.830154 207.576781 
L 437.214345 208.348513 
L 437.598536 208.667407 
L 437.982727 208.566384 
L 438.366917 208.053537 
L 438.943204 206.631751 
L 439.711585 203.846089 
L 442.01673 194.487112 
L 442.593016 193.115304 
L 442.977207 192.607925 
L 443.361398 192.465591 
L 443.745589 192.694494 
L 444.129779 193.322556 
L 444.706066 194.959464 
L 445.282352 197.39477 
L 446.050733 201.625385 
L 447.587497 211.82686 
L 448.740069 218.917201 
L 449.508451 222.455296 
L 450.084737 224.204714 
L 450.468928 224.893432 
L 450.853119 225.168106 
L 451.237309 225.047211 
L 451.6215 224.545021 
L 452.005691 223.674536 
L 452.581977 221.761208 
L 453.350359 218.339107 
L 455.847599 206.1736 
L 456.423885 204.437671 
L 456.808076 203.683184 
L 457.192267 203.289946 
L 457.576458 203.304661 
L 457.960648 203.690377 
L 458.344839 204.454947 
L 458.921125 206.308883 
L 459.689507 209.838603 
L 460.842079 216.638066 
L 462.378843 225.850644 
L 463.147224 229.361462 
L 463.723511 231.18408 
L 464.107701 231.934001 
L 464.491892 232.304987 
L 464.876083 232.285147 
L 465.260274 231.883302 
L 465.644465 231.108224 
L 466.220751 229.322807 
L 466.989132 225.991215 
L 468.3338 218.902314 
L 469.486373 213.320644 
L 470.254754 210.739597 
L 470.83104 209.649648 
L 471.215231 209.397234 
L 471.599422 209.502128 
L 471.983613 210.011348 
L 472.367804 210.884987 
L 472.94409 212.834754 
L 473.712471 216.443038 
L 475.057139 224.282142 
L 476.401807 231.726639 
L 477.170189 234.79724 
L 477.746475 236.234939 
L 478.130666 236.742911 
L 478.514857 236.862768 
L 478.899047 236.60087 
L 479.283238 235.966935 
L 479.859524 234.367464 
L 480.627906 231.222438 
L 481.780478 225.216962 
L 483.125146 218.291964 
L 483.893528 215.363426 
L 484.469814 213.960563 
L 484.854005 213.46757 
L 485.238196 213.338619 
L 485.622386 213.613424 
L 486.006577 214.250439 
L 486.582863 215.864184 
L 487.351245 219.086476 
L 488.311722 224.28216 
L 490.232676 234.891936 
L 491.001058 237.853445 
L 491.577344 239.237198 
L 491.961535 239.698952 
L 492.345726 239.780253 
L 492.729916 239.487382 
L 493.114107 238.823263 
L 493.690393 237.182302 
L 494.458775 234.013767 
L 495.611347 227.962811 
L 496.956015 220.986869 
L 497.724397 218.001502 
L 498.300683 216.571807 
L 498.684874 216.046978 
L 499.069065 215.906704 
L 499.453255 216.132556 
L 499.837446 216.727877 
L 500.413733 218.300107 
L 500.990019 220.550011 
L 501.950496 225.438126 
L 504.063545 236.940005 
L 504.831927 239.825802 
L 505.408213 241.167517 
L 505.792404 241.601558 
L 506.176595 241.662603 
L 506.560785 241.354309 
L 506.944976 240.667752 
L 507.521262 239.003247 
L 508.289644 235.804073 
L 509.442216 229.717048 
L 510.786884 222.705231 
L 511.555266 219.715327 
L 512.131552 218.243279 
L 512.515743 217.715855 
L 512.899934 217.546264 
L 513.284124 217.751109 
L 513.668315 218.333414 
L 514.244602 219.855725 
L 514.820888 222.067894 
L 515.781365 226.892904 
L 518.08651 239.058379 
L 518.662796 241.101992 
L 519.239082 242.402407 
L 519.623273 242.819962 
L 520.007464 242.872678 
L 520.391654 242.544213 
L 520.775845 241.849392 
L 521.352131 240.183756 
L 522.120513 236.956086 
L 523.273085 230.85345 
L 524.617753 223.818725 
L 525.386135 220.8039 
L 525.962421 219.331794 
L 526.346612 218.780203 
L 526.730803 218.596794 
L 527.114994 218.790496 
L 527.499184 219.366351 
L 527.883375 220.276471 
L 528.459661 222.252495 
L 529.228043 225.786306 
L 532.109474 240.647202 
L 532.68576 242.428243 
L 533.262046 243.449173 
L 533.646237 243.679976 
L 534.030428 243.526863 
L 534.414619 243.006736 
L 534.990905 241.566573 
L 535.567191 239.43716 
L 536.527668 234.751027 
L 538.640718 223.681411 
L 539.409099 220.926105 
L 539.985386 219.692654 
L 540.369576 219.3229 
L 540.753767 219.322277 
L 541.137958 219.693217 
L 541.522149 220.430775 
L 542.098435 222.160511 
L 542.866817 225.435654 
L 544.211484 232.717149 
L 545.556152 239.636047 
L 546.324534 242.438 
L 546.90082 243.712379 
L 547.285011 244.116948 
L 547.669202 244.150916 
L 548.053392 243.809493 
L 548.437583 243.099304 
L 549.013869 241.408761 
L 549.782251 238.173142 
L 551.126919 230.977002 
L 552.471587 224.13051 
L 553.239968 221.380925 
L 553.816255 220.143332 
L 554.200445 219.768817 
L 554.584636 219.755018 
L 554.968827 220.120646 
L 555.353018 220.853567 
L 555.929304 222.571751 
L 556.697686 225.850366 
L 557.850258 232.017998 
L 559.387021 239.982205 
L 560.155403 242.778584 
L 560.731689 244.043732 
L 561.11588 244.435153 
L 561.500071 244.475432 
L 561.884261 244.127507 
L 562.268452 243.410835 
L 562.844738 241.727714 
L 563.61312 238.476748 
L 564.765692 232.350782 
L 566.11036 225.27838 
L 566.878742 222.24787 
L 567.455028 220.75909 
L 567.839219 220.194463 
L 568.22341 219.989202 
L 568.607601 220.171451 
L 568.991791 220.715995 
L 569.568078 222.180062 
L 570.144364 224.354774 
L 571.104841 229.064341 
L 573.21789 240.206958 
L 573.986272 242.999251 
L 574.562558 244.25919 
L 574.946749 244.664166 
L 575.33094 244.681925 
L 575.71513 244.328864 
L 576.099321 243.627578 
L 576.675607 241.927113 
L 577.443989 238.687921 
L 578.788657 231.478967 
L 580.133325 224.625263 
L 580.901706 221.861763 
L 581.477993 220.612723 
L 581.862183 220.222839 
L 582.246374 220.212779 
L 582.630565 220.579698 
L 583.014756 221.299225 
L 583.591042 223.018357 
L 584.359424 226.268207 
L 585.704091 233.491784 
L 587.048759 240.36292 
L 587.817141 243.133265 
L 588.393427 244.402556 
L 588.777618 244.798777 
L 589.161809 244.819276 
L 589.545999 244.474218 
L 589.93019 243.75865 
L 590.506476 242.058591 
L 591.274858 238.812804 
L 592.619526 231.598526 
L 593.964194 224.741893 
L 594.732575 221.986528 
L 595.308862 220.732415 
L 595.693052 220.352252 
L 596.077243 220.335275 
L 596.461434 220.687447 
L 596.845625 221.413216 
L 597.421911 223.121949 
L 598.190293 226.38448 
L 599.342865 232.520078 
L 600.687533 239.603701 
L 601.455914 242.644229 
L 602.032201 244.164827 
L 602.416391 244.738285 
L 602.800582 244.947596 
L 603.184773 244.788262 
L 603.568964 244.244916 
L 604.14525 242.793234 
L 604.721536 240.64174 
L 605.682013 235.944359 
L 607.795063 224.831586 
L 608.563444 222.060089 
L 609.139731 220.809903 
L 609.523921 220.427103 
L 609.908112 220.411829 
L 610.292303 220.772066 
L 610.676494 221.492559 
L 611.25278 223.185909 
L 612.021162 226.450529 
L 613.173734 232.58949 
L 614.518402 239.663886 
L 615.286783 242.710893 
L 615.86307 244.216654 
L 616.24726 244.799631 
L 616.631451 245.007535 
L 617.015642 244.837503 
L 617.399833 244.307859 
L 617.784024 243.420773 
L 618.36031 241.481313 
L 619.128692 238.004857 
L 622.202218 222.696474 
L 622.778504 221.191516 
L 623.162695 220.623969 
L 623.546886 220.424688 
L 623.931077 220.600018 
L 624.315267 221.135877 
L 624.699458 222.026531 
L 625.275744 223.968754 
L 626.044126 227.447846 
L 629.117652 242.755401 
L 629.693939 244.269306 
L 630.078129 244.848043 
L 630.46232 245.045594 
L 630.846511 244.880826 
L 631.230702 244.350864 
L 631.806988 242.888729 
L 632.57537 239.897463 
L 633.535847 234.984628 
L 635.456801 224.914557 
L 636.225182 222.150587 
L 636.801469 220.894226 
L 637.185659 220.51529 
L 637.56985 220.498751 
L 637.954041 220.845878 
L 638.338232 221.574667 
L 638.914518 223.280171 
L 639.6829 226.533978 
L 641.027567 233.73621 
L 642.372235 240.598257 
L 643.140617 243.368888 
L 643.716903 244.628956 
L 644.101094 245.015203 
L 644.485285 245.043406 
L 644.869476 244.694747 
L 645.253666 243.971582 
L 645.829953 242.275899 
L 646.598334 239.013229 
L 647.750907 232.867554 
L 649.28767 224.944402 
L 650.056051 222.170248 
L 650.632338 220.914429 
L 651.016528 220.536462 
L 651.400719 220.517725 
L 651.78491 220.871946 
L 652.169101 221.598968 
L 652.745387 223.299857 
L 653.513769 226.552087 
L 654.666341 232.689425 
L 656.203104 240.610394 
L 656.971486 243.39834 
L 657.547772 244.648063 
L 657.931963 245.043589 
L 658.316154 245.063857 
L 658.700345 244.709046 
L 659.084535 243.987396 
L 659.660822 242.292054 
L 660.429203 239.040633 
L 661.581776 232.899335 
L 662.926443 225.820496 
L 663.694825 222.76963 
L 664.271111 221.267189 
L 664.655302 220.697994 
L 665.039493 220.495117 
L 665.423684 220.671977 
L 665.807874 221.207691 
L 666.192065 222.101501 
L 666.768351 224.035904 
L 667.536733 227.517776 
L 670.610259 242.823318 
L 671.186546 244.333022 
L 671.570737 244.913296 
L 671.954927 245.112732 
L 672.339118 244.947927 
L 672.723309 244.409643 
L 673.1075 243.520072 
L 673.683786 241.589032 
L 674.452168 238.099462 
L 677.525694 222.779483 
L 678.10198 221.277063 
L 678.486171 220.699611 
L 678.870362 220.506813 
L 679.254553 220.677604 
L 679.638743 221.215921 
L 680.21503 222.685338 
L 680.791316 224.833682 
L 681.751793 229.535975 
L 683.864842 240.653029 
L 684.633224 243.420485 
L 685.20951 244.684099 
L 685.593701 245.066277 
L 685.977892 245.085997 
L 686.362083 244.738837 
L 686.746273 244.015656 
L 687.32256 242.32149 
L 688.090941 239.05824 
L 689.243514 232.916619 
L 690.588181 225.837396 
L 691.356563 222.792499 
L 691.932849 221.288765 
L 692.31704 220.720125 
L 692.701231 220.513849 
L 693.085422 220.685022 
L 693.469612 221.233692 
L 694.045899 222.690036 
L 694.622185 224.84489 
L 695.582662 229.536769 
L 697.695711 240.653298 
L 698.464093 243.432838 
L 699.040379 244.687539 
L 699.42457 245.082764 
L 699.808761 245.102652 
L 700.192952 244.744459 
L 700.577142 244.028842 
L 701.153429 242.328159 
L 701.92181 239.067979 
L 703.074383 232.927282 
L 704.41905 225.845743 
L 705.187432 222.794744 
L 705.763718 221.296281 
L 706.147909 220.724884 
L 706.5321 220.515527 
L 706.916291 220.699389 
L 707.300481 221.237309 
L 707.876768 222.692489 
L 708.645149 225.696678 
L 709.605626 230.606689 
L 711.52658 240.665414 
L 712.294962 243.439963 
L 712.871248 244.696689 
L 713.255439 245.086602 
L 713.63963 245.106483 
L 714.023821 244.748594 
L 714.408011 244.041896 
L 714.600107 243.55142 
L 714.600107 243.55142 
" clip-path="url(#p7b0a1ca249)" style="fill: none; stroke: #781c6d; stroke-width: 1.5; stroke-linecap: square"/>
   </g>
   <g id="line2d_29">
    <path d="M 426.649098 189.218273 
L 427.80167 191.04142 
L 429.530529 193.381181 
L 431.835674 196.193909 
L 433.756628 198.340911 
L 438.174822 202.775267 
L 441.824635 205.989871 
L 445.282352 208.726405 
L 448.932165 211.313085 
L 451.6215 213.06853 
L 460.073698 217.694228 
L 463.33932 219.200916 
L 468.717991 221.378183 
L 477.362284 224.203142 
L 485.238196 226.194493 
L 488.695913 226.921221 
L 491.577344 227.480494 
L 506.944976 229.711626 
L 510.786884 230.105267 
L 512.707838 230.302614 
L 514.628792 230.46619 
L 517.510223 230.711508 
L 539.601195 232.001494 
L 542.674721 232.1118 
L 544.40358 232.173509 
L 550.166442 232.357321 
L 555.545113 232.501172 
L 557.466067 232.554142 
L 561.692166 232.630768 
L 563.805215 232.688621 
L 565.918265 232.715722 
L 635.456801 233.234365 
L 638.146136 233.230571 
L 639.490804 233.245214 
L 652.361196 233.262549 
L 655.626818 233.269865 
L 658.316154 233.266676 
L 661.197585 233.272612 
L 665.039493 233.272954 
L 667.152542 233.285838 
L 674.452168 233.287694 
L 675.796835 233.301037 
L 677.333599 233.286789 
L 684.056938 233.291962 
L 687.32256 233.291877 
L 689.435609 233.315057 
L 690.780277 233.302036 
L 693.469612 233.298495 
L 696.351043 233.308009 
L 699.232475 233.310021 
L 705.763718 233.313542 
L 708.645149 233.317019 
L 712.294962 233.315064 
L 714.600107 233.31151 
L 714.600107 233.31151 
" clip-path="url(#p7b0a1ca249)" style="fill: none; stroke-dasharray: 5.55,2.4; stroke-dashoffset: 0; stroke: #781c6d; stroke-width: 1.5"/>
   </g>
   <g id="line2d_30">
    <path d="M 427.185133 -1 
L 427.417479 29.144663 
L 427.993766 73.619052 
L 428.570052 99.879089 
L 429.146338 117.646407 
L 429.91472 134.387733 
L 430.683101 146.596656 
L 431.643578 158.295751 
L 432.796151 169.408074 
L 434.140818 180.10436 
L 435.485486 189.085708 
L 436.638059 195.439623 
L 437.598536 199.623754 
L 438.366917 202.185706 
L 439.135299 203.987073 
L 439.711585 204.875491 
L 440.287871 205.386958 
L 440.864158 205.56952 
L 441.440444 205.466743 
L 442.208825 205.028982 
L 444.898161 203.063398 
L 445.474447 202.985326 
L 446.050733 203.125044 
L 446.62702 203.496753 
L 447.395401 204.32107 
L 448.355878 205.821245 
L 451.429405 211.15236 
L 452.197786 211.871781 
L 452.774073 212.126001 
L 453.350359 212.106373 
L 453.926645 211.836853 
L 454.502931 211.320905 
L 455.271313 210.329179 
L 456.423885 208.482287 
L 457.960648 206.119111 
L 458.72903 205.300973 
L 459.497412 204.894736 
L 460.073698 204.890889 
L 460.649984 205.130083 
L 461.22627 205.614277 
L 461.994652 206.572836 
L 463.147224 208.446963 
L 464.683988 210.955688 
L 465.644465 212.041752 
L 466.220751 212.413966 
L 466.797037 212.519367 
L 467.373323 212.37211 
L 467.949609 211.974175 
L 468.717991 211.108314 
L 469.870563 209.304584 
L 471.791517 206.231459 
L 472.559899 205.412644 
L 473.136185 205.042815 
L 473.712471 204.947605 
L 474.288758 205.090418 
L 474.865044 205.49614 
L 475.633426 206.357696 
L 476.785998 208.158727 
L 478.706952 211.24842 
L 479.475334 212.06963 
L 480.05162 212.433361 
L 480.627906 212.53224 
L 481.204192 212.390019 
L 481.780478 211.984669 
L 482.54886 211.117387 
L 483.701432 209.318064 
L 485.430291 206.494732 
L 486.198673 205.586746 
L 486.774959 205.140227 
L 487.351245 204.956379 
L 487.927531 205.017276 
L 488.503818 205.345455 
L 489.080104 205.887818 
L 489.848485 206.916519 
L 491.193153 209.157114 
L 492.537821 211.248099 
L 493.306203 212.075385 
L 493.882489 212.425553 
L 494.458775 212.545233 
L 495.035061 212.385323 
L 495.611347 211.992714 
L 496.379729 211.112212 
L 497.340206 209.639889 
L 499.26116 206.498368 
L 500.029542 205.582629 
L 500.605828 205.153751 
L 501.182114 204.954815 
L 501.7584 205.019338 
L 502.334687 205.336638 
L 502.910973 205.892338 
L 503.87145 207.214491 
L 506.560785 211.48886 
L 507.137072 212.076391 
L 507.713358 212.437654 
L 508.289644 212.541794 
L 508.86593 212.393009 
L 509.442216 211.990017 
L 510.210598 211.119789 
L 511.171075 209.632792 
L 513.47622 205.99806 
L 514.244602 205.275044 
L 514.820888 204.992443 
L 515.397174 204.971581 
L 515.97346 205.204609 
L 516.549746 205.688448 
L 517.318128 206.640545 
L 518.662796 208.829388 
L 520.007464 210.996107 
L 520.775845 211.905843 
L 521.352131 212.349348 
L 521.928418 212.533199 
L 522.504704 212.476307 
L 523.08099 212.14863 
L 523.849372 211.371117 
L 524.809849 209.952569 
L 527.499184 205.78075 
L 528.267566 205.145725 
L 528.843852 204.961753 
L 529.420138 205.017521 
L 529.996425 205.350689 
L 530.572711 205.895007 
L 531.341092 206.929782 
L 532.68576 209.168678 
L 534.030428 211.257829 
L 534.79881 212.080989 
L 535.375096 212.435134 
L 535.951382 212.546526 
L 536.527668 212.38736 
L 537.103954 211.993089 
L 537.872336 211.116164 
L 539.024908 209.310086 
L 540.945863 206.238002 
L 541.714244 205.414441 
L 542.29053 205.055961 
L 542.866817 204.951312 
L 543.443103 205.106113 
L 544.019389 205.498117 
L 544.787771 206.387645 
L 545.748248 207.861573 
L 548.053392 211.503915 
L 548.821774 212.232179 
L 549.39806 212.512 
L 549.974346 212.526199 
L 550.550633 212.283078 
L 551.126919 211.803956 
L 551.8953 210.853433 
L 553.239968 208.656657 
L 554.584636 206.49626 
L 555.353018 205.587395 
L 556.121399 205.058948 
L 556.697686 204.950494 
L 557.273972 205.10599 
L 557.850258 205.510883 
L 558.61864 206.379108 
L 559.579117 207.861115 
L 561.884261 211.510165 
L 562.652643 212.228921 
L 563.228929 212.511619 
L 563.805215 212.517947 
L 564.381502 212.289162 
L 565.149883 211.600415 
L 565.918265 210.558716 
L 567.262933 208.311646 
L 568.607601 206.233741 
L 569.375982 205.415061 
L 569.952268 205.058833 
L 570.528555 204.956512 
L 571.104841 205.111062 
L 571.681127 205.515458 
L 572.449509 206.383309 
L 573.602081 208.190768 
L 575.33094 211.013971 
L 576.099321 211.923321 
L 576.675607 212.358949 
L 577.251894 212.54895 
L 577.82818 212.480028 
L 578.404466 212.150159 
L 579.172848 211.365144 
L 580.133325 209.960503 
L 582.43847 206.233172 
L 583.206851 205.410496 
L 583.783137 205.06232 
L 584.359424 204.956658 
L 584.93571 205.108502 
L 585.704091 205.69323 
L 586.664568 206.935755 
L 589.93019 211.926935 
L 590.506476 212.357554 
L 591.082763 212.546667 
L 591.659049 212.471072 
L 592.235335 212.153919 
L 592.811621 211.590943 
L 593.580003 210.570206 
L 596.845625 205.581956 
L 597.614006 205.060626 
L 598.190293 204.959054 
L 598.766579 205.115568 
L 599.342865 205.512112 
L 600.111247 206.39281 
L 600.879628 207.557676 
L 603.184773 211.279908 
L 603.953155 212.094319 
L 604.529441 212.460617 
L 605.105727 212.555283 
L 605.682013 212.404396 
L 606.2583 211.993507 
L 607.026681 211.122523 
L 608.179254 209.310396 
L 610.100208 206.226901 
L 610.868589 205.418153 
L 611.444875 205.055443 
L 612.021162 204.963016 
L 612.597448 205.114568 
L 613.173734 205.528516 
L 613.942116 206.386272 
L 615.286783 208.535496 
L 616.823547 211.031254 
L 617.591928 211.927382 
L 618.168214 212.369512 
L 618.744501 212.552671 
L 619.320787 212.489461 
L 619.897073 212.156198 
L 620.665455 211.368121 
L 621.625932 209.955945 
L 624.123172 206.001648 
L 624.891554 205.270228 
L 625.46784 205.00854 
L 626.044126 204.986132 
L 626.620412 205.225889 
L 627.196698 205.704861 
L 627.96508 206.670451 
L 628.925557 208.211703 
L 630.846511 211.284892 
L 631.614893 212.106874 
L 632.191179 212.46136 
L 632.767465 212.564521 
L 633.343751 212.39806 
L 633.920038 211.999924 
L 634.688419 211.113594 
L 635.648896 209.632905 
L 637.56985 206.497037 
L 638.338232 205.575123 
L 639.106613 205.062025 
L 639.6829 204.96567 
L 640.259186 205.121848 
L 640.835472 205.523622 
L 641.603854 206.402679 
L 642.564331 207.887315 
L 644.67738 211.294357 
L 645.445762 212.106597 
L 646.022048 212.465047 
L 646.598334 212.55847 
L 647.17462 212.408181 
L 647.750907 211.995146 
L 648.519288 211.121278 
L 649.671861 209.312081 
L 651.592815 206.228855 
L 652.361196 205.419467 
L 652.937482 205.060867 
L 653.513769 204.968611 
L 654.090055 205.116098 
L 654.666341 205.534869 
L 655.434723 206.396876 
L 656.587295 208.203944 
L 658.316154 211.043731 
L 659.084535 211.940384 
L 659.660822 212.379409 
L 660.237108 212.554281 
L 660.813394 212.492168 
L 661.38968 212.157086 
L 662.158062 211.370824 
L 663.118539 209.950652 
L 665.807874 205.783181 
L 666.576256 205.154505 
L 667.152542 204.972238 
L 667.728828 205.037154 
L 668.305115 205.372148 
L 669.073496 206.152142 
L 670.033973 207.572998 
L 672.723309 211.753109 
L 673.299595 212.26234 
L 673.875881 212.524393 
L 674.452168 212.543859 
L 675.028454 212.295488 
L 675.796835 211.599173 
L 676.757312 210.261758 
L 679.638743 205.777866 
L 680.21503 205.276965 
L 680.791316 205.004679 
L 681.367602 204.988486 
L 681.943888 205.23477 
L 682.520174 205.721505 
L 683.288556 206.67936 
L 684.441129 208.547512 
L 686.169987 211.304401 
L 686.938369 212.119868 
L 687.514655 212.468215 
L 688.090941 212.567068 
L 688.667227 212.408648 
L 689.243514 211.996479 
L 690.011895 211.118154 
L 690.972372 209.630385 
L 693.277517 205.993588 
L 694.045899 205.274616 
L 694.622185 205.004456 
L 695.198471 205.000513 
L 695.774757 205.238843 
L 696.543139 205.934474 
L 697.311521 206.976291 
L 698.656188 209.219834 
L 700.000856 211.313831 
L 700.769238 212.122392 
L 701.345524 212.474583 
L 701.92181 212.571878 
L 702.498096 212.412156 
L 703.074383 211.995433 
L 703.842764 211.118348 
L 704.995337 209.307745 
L 706.724195 206.488732 
L 707.492577 205.586687 
L 708.068863 205.158829 
L 708.645149 204.976429 
L 709.221435 205.045819 
L 709.797722 205.381182 
L 710.374008 205.93026 
L 711.334485 207.274707 
L 714.215916 211.765602 
L 714.600107 212.130869 
L 714.600107 212.130869 
" clip-path="url(#p7b0a1ca249)" style="fill: none; stroke: #ed6925; stroke-width: 1.5; stroke-linecap: square"/>
   </g>
   <g id="line2d_31">
    <path d="M 426.649098 207.485642 
L 427.417479 208.035731 
L 428.570052 208.559303 
L 430.106815 208.963513 
L 432.027769 209.221191 
L 435.293391 209.384433 
L 447.395401 209.445251 
L 562.844738 209.458995 
L 578.212371 209.460093 
L 616.24726 209.464923 
L 640.259186 209.466797 
L 661.773871 209.470737 
L 671.378641 209.470168 
L 703.074383 209.473937 
L 714.600107 209.475041 
L 714.600107 209.475041 
" clip-path="url(#p7b0a1ca249)" style="fill: none; stroke-dasharray: 5.55,2.4; stroke-dashoffset: 0; stroke: #ed6925; stroke-width: 1.5"/>
   </g>
   <g id="patch_8">
    <path d="M 426.841193 307.779062 
L 426.841193 11.759062 
" style="fill: none; stroke: #000000; stroke-width: 0.8; stroke-linejoin: miter; stroke-linecap: square"/>
   </g>
   <g id="patch_9">
    <path d="M 714.408011 307.779062 
L 714.408011 11.759062 
" style="fill: none; stroke: #000000; stroke-width: 0.8; stroke-linejoin: miter; stroke-linecap: square"/>
   </g>
   <g id="patch_10">
    <path d="M 426.841193 307.779062 
L 714.408011 307.779062 
" style="fill: none; stroke: #000000; stroke-width: 0.8; stroke-linejoin: miter; stroke-linecap: square"/>
   </g>
   <g id="patch_11">
    <path d="M 426.841193 11.759062 
L 714.408011 11.759062 
" style="fill: none; stroke: #000000; stroke-width: 0.8; stroke-linejoin: miter; stroke-linecap: square"/>
   </g>
   <g id="legend_1">
    <g id="patch_12">
     <path d="M 731.186352 85.764062 
L 916.903227 85.764062 
Q 919.303227 85.764062 919.303227 83.364062 
L 919.303227 14.109062 
Q 919.303227 11.709062 916.903227 11.709062 
L 731.186352 11.709062 
Q 728.786352 11.709062 728.786352 14.109062 
L 728.786352 83.364062 
Q 728.786352 85.764062 731.186352 85.764062 
z
" style="fill: #ffffff; opacity: 0.8; stroke: #cccccc; stroke-linejoin: miter"/>
    </g>
    <g id="line2d_32">
     <path d="M 733.586352 21.427187 
L 745.586352 21.427187 
L 757.586352 21.427187 
" style="fill: none; stroke: #781c6d; stroke-width: 1.5; stroke-linecap: square"/>
    </g>
    <g id="text_28">
     <!-- LF=0.50 -->
     <g transform="translate(767.186352 25.627187) scale(0.12 -0.12)">
      <defs>
       <path id="DejaVuSans-4c" d="M 628 4666 
L 1259 4666 
L 1259 531 
L 3531 531 
L 3531 0 
L 628 0 
L 628 4666 
z
" transform="scale(0.015625)"/>
       <path id="DejaVuSans-46" d="M 628 4666 
L 3309 4666 
L 3309 4134 
L 1259 4134 
L 1259 2759 
L 3109 2759 
L 3109 2228 
L 1259 2228 
L 1259 0 
L 628 0 
L 628 4666 
z
" transform="scale(0.015625)"/>
       <path id="DejaVuSans-3d" d="M 678 2906 
L 4684 2906 
L 4684 2381 
L 678 2381 
L 678 2906 
z
M 678 1631 
L 4684 1631 
L 4684 1100 
L 678 1100 
L 678 1631 
z
" transform="scale(0.015625)"/>
      </defs>
      <use xlink:href="#DejaVuSans-4c"/>
      <use xlink:href="#DejaVuSans-46" transform="translate(55.712891 0)"/>
      <use xlink:href="#DejaVuSans-3d" transform="translate(113.232422 0)"/>
      <use xlink:href="#DejaVuSans-30" transform="translate(197.021484 0)"/>
      <use xlink:href="#DejaVuSans-2e" transform="translate(260.644531 0)"/>
      <use xlink:href="#DejaVuSans-35" transform="translate(292.431641 0)"/>
      <use xlink:href="#DejaVuSans-30" transform="translate(356.054688 0)"/>
     </g>
    </g>
    <g id="line2d_33">
     <path d="M 733.586352 39.040937 
L 745.586352 39.040937 
L 757.586352 39.040937 
" style="fill: none; stroke-dasharray: 5.55,2.4; stroke-dashoffset: 0; stroke: #781c6d; stroke-width: 1.5"/>
    </g>
    <g id="text_29">
     <!-- LF=0.50 (no wall model) -->
     <g transform="translate(767.186352 43.240937) scale(0.12 -0.12)">
      <defs>
       <path id="DejaVuSans-28" d="M 1984 4856 
Q 1566 4138 1362 3434 
Q 1159 2731 1159 2009 
Q 1159 1288 1364 580 
Q 1569 -128 1984 -844 
L 1484 -844 
Q 1016 -109 783 600 
Q 550 1309 550 2009 
Q 550 2706 781 3412 
Q 1013 4119 1484 4856 
L 1984 4856 
z
" transform="scale(0.015625)"/>
       <path id="DejaVuSans-6e" d="M 3513 2113 
L 3513 0 
L 2938 0 
L 2938 2094 
Q 2938 2591 2744 2837 
Q 2550 3084 2163 3084 
Q 1697 3084 1428 2787 
Q 1159 2491 1159 1978 
L 1159 0 
L 581 0 
L 581 3500 
L 1159 3500 
L 1159 2956 
Q 1366 3272 1645 3428 
Q 1925 3584 2291 3584 
Q 2894 3584 3203 3211 
Q 3513 2838 3513 2113 
z
" transform="scale(0.015625)"/>
       <path id="DejaVuSans-77" d="M 269 3500 
L 844 3500 
L 1563 769 
L 2278 3500 
L 2956 3500 
L 3675 769 
L 4391 3500 
L 4966 3500 
L 4050 0 
L 3372 0 
L 2619 2869 
L 1863 0 
L 1184 0 
L 269 3500 
z
" transform="scale(0.015625)"/>
       <path id="DejaVuSans-64" d="M 2906 2969 
L 2906 4863 
L 3481 4863 
L 3481 0 
L 2906 0 
L 2906 525 
Q 2725 213 2448 61 
Q 2172 -91 1784 -91 
Q 1150 -91 751 415 
Q 353 922 353 1747 
Q 353 2572 751 3078 
Q 1150 3584 1784 3584 
Q 2172 3584 2448 3432 
Q 2725 3281 2906 2969 
z
M 947 1747 
Q 947 1113 1208 752 
Q 1469 391 1925 391 
Q 2381 391 2643 752 
Q 2906 1113 2906 1747 
Q 2906 2381 2643 2742 
Q 2381 3103 1925 3103 
Q 1469 3103 1208 2742 
Q 947 2381 947 1747 
z
" transform="scale(0.015625)"/>
       <path id="DejaVuSans-29" d="M 513 4856 
L 1013 4856 
Q 1481 4119 1714 3412 
Q 1947 2706 1947 2009 
Q 1947 1309 1714 600 
Q 1481 -109 1013 -844 
L 513 -844 
Q 928 -128 1133 580 
Q 1338 1288 1338 2009 
Q 1338 2731 1133 3434 
Q 928 4138 513 4856 
z
" transform="scale(0.015625)"/>
      </defs>
      <use xlink:href="#DejaVuSans-4c"/>
      <use xlink:href="#DejaVuSans-46" transform="translate(55.712891 0)"/>
      <use xlink:href="#DejaVuSans-3d" transform="translate(113.232422 0)"/>
      <use xlink:href="#DejaVuSans-30" transform="translate(197.021484 0)"/>
      <use xlink:href="#DejaVuSans-2e" transform="translate(260.644531 0)"/>
      <use xlink:href="#DejaVuSans-35" transform="translate(292.431641 0)"/>
      <use xlink:href="#DejaVuSans-30" transform="translate(356.054688 0)"/>
      <use xlink:href="#DejaVuSans-20" transform="translate(419.677734 0)"/>
      <use xlink:href="#DejaVuSans-28" transform="translate(451.464844 0)"/>
      <use xlink:href="#DejaVuSans-6e" transform="translate(490.478516 0)"/>
      <use xlink:href="#DejaVuSans-6f" transform="translate(553.857422 0)"/>
      <use xlink:href="#DejaVuSans-20" transform="translate(615.039062 0)"/>
      <use xlink:href="#DejaVuSans-77" transform="translate(646.826172 0)"/>
      <use xlink:href="#DejaVuSans-61" transform="translate(728.613281 0)"/>
      <use xlink:href="#DejaVuSans-6c" transform="translate(789.892578 0)"/>
      <use xlink:href="#DejaVuSans-6c" transform="translate(817.675781 0)"/>
      <use xlink:href="#DejaVuSans-20" transform="translate(845.458984 0)"/>
      <use xlink:href="#DejaVuSans-6d" transform="translate(877.246094 0)"/>
      <use xlink:href="#DejaVuSans-6f" transform="translate(974.658203 0)"/>
      <use xlink:href="#DejaVuSans-64" transform="translate(1035.839844 0)"/>
      <use xlink:href="#DejaVuSans-65" transform="translate(1099.316406 0)"/>
      <use xlink:href="#DejaVuSans-6c" transform="translate(1160.839844 0)"/>
      <use xlink:href="#DejaVuSans-29" transform="translate(1188.623047 0)"/>
     </g>
    </g>
    <g id="line2d_34">
     <path d="M 733.586352 56.654687 
L 745.586352 56.654687 
L 757.586352 56.654687 
" style="fill: none; stroke: #ed6925; stroke-width: 1.5; stroke-linecap: square"/>
    </g>
    <g id="text_30">
     <!-- LF=0.95 -->
     <g transform="translate(767.186352 60.854687) scale(0.12 -0.12)">
      <defs>
       <path id="DejaVuSans-39" d="M 703 97 
L 703 672 
Q 941 559 1184 500 
Q 1428 441 1663 441 
Q 2288 441 2617 861 
Q 2947 1281 2994 2138 
Q 2813 1869 2534 1725 
Q 2256 1581 1919 1581 
Q 1219 1581 811 2004 
Q 403 2428 403 3163 
Q 403 3881 828 4315 
Q 1253 4750 1959 4750 
Q 2769 4750 3195 4129 
Q 3622 3509 3622 2328 
Q 3622 1225 3098 567 
Q 2575 -91 1691 -91 
Q 1453 -91 1209 -44 
Q 966 3 703 97 
z
M 1959 2075 
Q 2384 2075 2632 2365 
Q 2881 2656 2881 3163 
Q 2881 3666 2632 3958 
Q 2384 4250 1959 4250 
Q 1534 4250 1286 3958 
Q 1038 3666 1038 3163 
Q 1038 2656 1286 2365 
Q 1534 2075 1959 2075 
z
" transform="scale(0.015625)"/>
      </defs>
      <use xlink:href="#DejaVuSans-4c"/>
      <use xlink:href="#DejaVuSans-46" transform="translate(55.712891 0)"/>
      <use xlink:href="#DejaVuSans-3d" transform="translate(113.232422 0)"/>
      <use xlink:href="#DejaVuSans-30" transform="translate(197.021484 0)"/>
      <use xlink:href="#DejaVuSans-2e" transform="translate(260.644531 0)"/>
      <use xlink:href="#DejaVuSans-39" transform="translate(292.431641 0)"/>
      <use xlink:href="#DejaVuSans-35" transform="translate(356.054688 0)"/>
     </g>
    </g>
    <g id="line2d_35">
     <path d="M 733.586352 74.268437 
L 745.586352 74.268437 
L 757.586352 74.268437 
" style="fill: none; stroke-dasharray: 5.55,2.4; stroke-dashoffset: 0; stroke: #ed6925; stroke-width: 1.5"/>
    </g>
    <g id="text_31">
     <!-- LF=0.95 (no wall model) -->
     <g transform="translate(767.186352 78.468437) scale(0.12 -0.12)">
      <use xlink:href="#DejaVuSans-4c"/>
      <use xlink:href="#DejaVuSans-46" transform="translate(55.712891 0)"/>
      <use xlink:href="#DejaVuSans-3d" transform="translate(113.232422 0)"/>
      <use xlink:href="#DejaVuSans-30" transform="translate(197.021484 0)"/>
      <use xlink:href="#DejaVuSans-2e" transform="translate(260.644531 0)"/>
      <use xlink:href="#DejaVuSans-39" transform="translate(292.431641 0)"/>
      <use xlink:href="#DejaVuSans-35" transform="translate(356.054688 0)"/>
      <use xlink:href="#DejaVuSans-20" transform="translate(419.677734 0)"/>
      <use xlink:href="#DejaVuSans-28" transform="translate(451.464844 0)"/>
      <use xlink:href="#DejaVuSans-6e" transform="translate(490.478516 0)"/>
      <use xlink:href="#DejaVuSans-6f" transform="translate(553.857422 0)"/>
      <use xlink:href="#DejaVuSans-20" transform="translate(615.039062 0)"/>
      <use xlink:href="#DejaVuSans-77" transform="translate(646.826172 0)"/>
      <use xlink:href="#DejaVuSans-61" transform="translate(728.613281 0)"/>
      <use xlink:href="#DejaVuSans-6c" transform="translate(789.892578 0)"/>
      <use xlink:href="#DejaVuSans-6c" transform="translate(817.675781 0)"/>
      <use xlink:href="#DejaVuSans-20" transform="translate(845.458984 0)"/>
      <use xlink:href="#DejaVuSans-6d" transform="translate(877.246094 0)"/>
      <use xlink:href="#DejaVuSans-6f" transform="translate(974.658203 0)"/>
      <use xlink:href="#DejaVuSans-64" transform="translate(1035.839844 0)"/>
      <use xlink:href="#DejaVuSans-65" transform="translate(1099.316406 0)"/>
      <use xlink:href="#DejaVuSans-6c" transform="translate(1160.839844 0)"/>
      <use xlink:href="#DejaVuSans-29" transform="translate(1188.623047 0)"/>
     </g>
    </g>
   </g>
  </g>
 </g>
 <defs>
  <clipPath id="p92c08adfef">
   <rect x="54.654375" y="11.759062" width="287.566818" height="296.02"/>
  </clipPath>
  <clipPath id="p7b0a1ca249">
   <rect x="426.841193" y="11.759062" width="287.566818" height="296.02"/>
  </clipPath>
 </defs>
</svg>
