<?xml version="1.0" encoding="utf-8" standalone="no"?>
<!DOCTYPE svg PUBLIC "-//W3C//DTD SVG 1.1//EN"
  "http://www.w3.org/Graphics/SVG/1.1/DTD/svg11.dtd">
<svg xmlns:xlink="http://www.w3.org/1999/xlink" width="568.6675pt" height="422.4447pt" viewBox="0 0 568.6675 422.4447" xmlns="http://www.w3.org/2000/svg" version="1.1">
 <metadata>
  <rdf:RDF xmlns:dc="http://purl.org/dc/elements/1.1/" xmlns:cc="http://creativecommons.org/ns#" xmlns:rdf="http://www.w3.org/1999/02/22-rdf-syntax-ns#">
   <cc:Work>
    <dc:type rdf:resource="http://purl.org/dc/dcmitype/StillImage"/>
    <dc:date>2025-09-07T22:52:52.853639</dc:date>
    <dc:format>image/svg+xml</dc:format>
    <dc:creator>
     <cc:Agent>
      <dc:title>Matplotlib v3.10.1, https://matplotlib.org/</dc:title>
     </cc:Agent>
    </dc:creator>
   </cc:Work>
  </rdf:RDF>
 </metadata>
 <defs>
  <style type="text/css">*{stroke-linejoin: round; stroke-linecap: butt}</style>
 </defs>
 <g id="figure_1">
  <g id="patch_1">
   <path d="M 0 422.4447 
L 568.6675 422.4447 
L 568.6675 0 
L 0 0 
z
" style="fill: #ffffff"/>
  </g>
  <g id="axes_1">
   <g id="patch_2">
    <path d="M 62.92125 330.978 
L 548.10625 330.978 
L 548.10625 7.2 
L 62.92125 7.2 
z
" style="fill: #ffffff"/>
   </g>
   <g id="matplotlib.axis_1">
    <g id="xtick_1">
     <g id="line2d_1">
      <defs>
       <path id="ma9d554d3f8" d="M 0 0 
L 0 3.5 
" style="stroke: #000000; stroke-width: 0.8"/>
      </defs>
      <g>
       <use xlink:href="#ma9d554d3f8" x="62.92125" y="330.978" style="stroke: #000000; stroke-width: 0.8"/>
      </g>
     </g>
     <g id="text_1">
      <!-- 20 -->
      <g transform="translate(54.01375 348.615812) scale(0.14 -0.14)">
       <defs>
        <path id="DejaVuSans-32" d="M 1228 531 
L 3431 531 
L 3431 0 
L 469 0 
L 469 531 
Q 828 903 1448 1529 
Q 2069 2156 2228 2338 
Q 2531 2678 2651 2914 
Q 2772 3150 2772 3378 
Q 2772 3750 2511 3984 
Q 2250 4219 1831 4219 
Q 1534 4219 1204 4116 
Q 875 4013 500 3803 
L 500 4441 
Q 881 4594 1212 4672 
Q 1544 4750 1819 4750 
Q 2544 4750 2975 4387 
Q 3406 4025 3406 3419 
Q 3406 3131 3298 2873 
Q 3191 2616 2906 2266 
Q 2828 2175 2409 1742 
Q 1991 1309 1228 531 
z
" transform="scale(0.015625)"/>
        <path id="DejaVuSans-30" d="M 2034 4250 
Q 1547 4250 1301 3770 
Q 1056 3291 1056 2328 
Q 1056 1369 1301 889 
Q 1547 409 2034 409 
Q 2525 409 2770 889 
Q 3016 1369 3016 2328 
Q 3016 3291 2770 3770 
Q 2525 4250 2034 4250 
z
M 2034 4750 
Q 2819 4750 3233 4129 
Q 3647 3509 3647 2328 
Q 3647 1150 3233 529 
Q 2819 -91 2034 -91 
Q 1250 -91 836 529 
Q 422 1150 422 2328 
Q 422 3509 836 4129 
Q 1250 4750 2034 4750 
z
" transform="scale(0.015625)"/>
       </defs>
       <use xlink:href="#DejaVuSans-32"/>
       <use xlink:href="#DejaVuSans-30" transform="translate(63.623047 0)"/>
      </g>
     </g>
    </g>
    <g id="xtick_2">
     <g id="line2d_2">
      <g>
       <use xlink:href="#ma9d554d3f8" x="116.830694" y="330.978" style="stroke: #000000; stroke-width: 0.8"/>
      </g>
     </g>
     <g id="text_2">
      <!-- 40 -->
      <g transform="translate(107.923194 348.615812) scale(0.14 -0.14)">
       <defs>
        <path id="DejaVuSans-34" d="M 2419 4116 
L 825 1625 
L 2419 1625 
L 2419 4116 
z
M 2253 4666 
L 3047 4666 
L 3047 1625 
L 3713 1625 
L 3713 1100 
L 3047 1100 
L 3047 0 
L 2419 0 
L 2419 1100 
L 313 1100 
L 313 1709 
L 2253 4666 
z
" transform="scale(0.015625)"/>
       </defs>
       <use xlink:href="#DejaVuSans-34"/>
       <use xlink:href="#DejaVuSans-30" transform="translate(63.623047 0)"/>
      </g>
     </g>
    </g>
    <g id="xtick_3">
     <g id="line2d_3">
      <g>
       <use xlink:href="#ma9d554d3f8" x="170.740139" y="330.978" style="stroke: #000000; stroke-width: 0.8"/>
      </g>
     </g>
     <g id="text_3">
      <!-- 60 -->
      <g transform="translate(161.832639 348.615812) scale(0.14 -0.14)">
       <defs>
        <path id="DejaVuSans-36" d="M 2113 2584 
Q 1688 2584 1439 2293 
Q 1191 2003 1191 1497 
Q 1191 994 1439 701 
Q 1688 409 2113 409 
Q 2538 409 2786 701 
Q 3034 994 3034 1497 
Q 3034 2003 2786 2293 
Q 2538 2584 2113 2584 
z
M 3366 4563 
L 3366 3988 
Q 3128 4100 2886 4159 
Q 2644 4219 2406 4219 
Q 1781 4219 1451 3797 
Q 1122 3375 1075 2522 
Q 1259 2794 1537 2939 
Q 1816 3084 2150 3084 
Q 2853 3084 3261 2657 
Q 3669 2231 3669 1497 
Q 3669 778 3244 343 
Q 2819 -91 2113 -91 
Q 1303 -91 875 529 
Q 447 1150 447 2328 
Q 447 3434 972 4092 
Q 1497 4750 2381 4750 
Q 2619 4750 2861 4703 
Q 3103 4656 3366 4563 
z
" transform="scale(0.015625)"/>
       </defs>
       <use xlink:href="#DejaVuSans-36"/>
       <use xlink:href="#DejaVuSans-30" transform="translate(63.623047 0)"/>
      </g>
     </g>
    </g>
    <g id="xtick_4">
     <g id="line2d_4">
      <g>
       <use xlink:href="#ma9d554d3f8" x="224.649583" y="330.978" style="stroke: #000000; stroke-width: 0.8"/>
      </g>
     </g>
     <g id="text_4">
      <!-- 80 -->
      <g transform="translate(215.742083 348.615812) scale(0.14 -0.14)">
       <defs>
        <path id="DejaVuSans-38" d="M 2034 2216 
Q 1584 2216 1326 1975 
Q 1069 1734 1069 1313 
Q 1069 891 1326 650 
Q 1584 409 2034 409 
Q 2484 409 2743 651 
Q 3003 894 3003 1313 
Q 3003 1734 2745 1975 
Q 2488 2216 2034 2216 
z
M 1403 2484 
Q 997 2584 770 2862 
Q 544 3141 544 3541 
Q 544 4100 942 4425 
Q 1341 4750 2034 4750 
Q 2731 4750 3128 4425 
Q 3525 4100 3525 3541 
Q 3525 3141 3298 2862 
Q 3072 2584 2669 2484 
Q 3125 2378 3379 2068 
Q 3634 1759 3634 1313 
Q 3634 634 3220 271 
Q 2806 -91 2034 -91 
Q 1263 -91 848 271 
Q 434 634 434 1313 
Q 434 1759 690 2068 
Q 947 2378 1403 2484 
z
M 1172 3481 
Q 1172 3119 1398 2916 
Q 1625 2713 2034 2713 
Q 2441 2713 2670 2916 
Q 2900 3119 2900 3481 
Q 2900 3844 2670 4047 
Q 2441 4250 2034 4250 
Q 1625 4250 1398 4047 
Q 1172 3844 1172 3481 
z
" transform="scale(0.015625)"/>
       </defs>
       <use xlink:href="#DejaVuSans-38"/>
       <use xlink:href="#DejaVuSans-30" transform="translate(63.623047 0)"/>
      </g>
     </g>
    </g>
    <g id="xtick_5">
     <g id="line2d_5">
      <g>
       <use xlink:href="#ma9d554d3f8" x="278.559028" y="330.978" style="stroke: #000000; stroke-width: 0.8"/>
      </g>
     </g>
     <g id="text_5">
      <!-- 100 -->
      <g transform="translate(265.197778 348.615812) scale(0.14 -0.14)">
       <defs>
        <path id="DejaVuSans-31" d="M 794 531 
L 1825 531 
L 1825 4091 
L 703 3866 
L 703 4441 
L 1819 4666 
L 2450 4666 
L 2450 531 
L 3481 531 
L 3481 0 
L 794 0 
L 794 531 
z
" transform="scale(0.015625)"/>
       </defs>
       <use xlink:href="#DejaVuSans-31"/>
       <use xlink:href="#DejaVuSans-30" transform="translate(63.623047 0)"/>
       <use xlink:href="#DejaVuSans-30" transform="translate(127.246094 0)"/>
      </g>
     </g>
    </g>
    <g id="xtick_6">
     <g id="line2d_6">
      <g>
       <use xlink:href="#ma9d554d3f8" x="332.468472" y="330.978" style="stroke: #000000; stroke-width: 0.8"/>
      </g>
     </g>
     <g id="text_6">
      <!-- 120 -->
      <g transform="translate(319.107222 348.615812) scale(0.14 -0.14)">
       <use xlink:href="#DejaVuSans-31"/>
       <use xlink:href="#DejaVuSans-32" transform="translate(63.623047 0)"/>
       <use xlink:href="#DejaVuSans-30" transform="translate(127.246094 0)"/>
      </g>
     </g>
    </g>
    <g id="xtick_7">
     <g id="line2d_7">
      <g>
       <use xlink:href="#ma9d554d3f8" x="386.377917" y="330.978" style="stroke: #000000; stroke-width: 0.8"/>
      </g>
     </g>
     <g id="text_7">
      <!-- 140 -->
      <g transform="translate(373.016667 348.615812) scale(0.14 -0.14)">
       <use xlink:href="#DejaVuSans-31"/>
       <use xlink:href="#DejaVuSans-34" transform="translate(63.623047 0)"/>
       <use xlink:href="#DejaVuSans-30" transform="translate(127.246094 0)"/>
      </g>
     </g>
    </g>
    <g id="xtick_8">
     <g id="line2d_8">
      <g>
       <use xlink:href="#ma9d554d3f8" x="440.287361" y="330.978" style="stroke: #000000; stroke-width: 0.8"/>
      </g>
     </g>
     <g id="text_8">
      <!-- 160 -->
      <g transform="translate(426.926111 348.615812) scale(0.14 -0.14)">
       <use xlink:href="#DejaVuSans-31"/>
       <use xlink:href="#DejaVuSans-36" transform="translate(63.623047 0)"/>
       <use xlink:href="#DejaVuSans-30" transform="translate(127.246094 0)"/>
      </g>
     </g>
    </g>
    <g id="xtick_9">
     <g id="line2d_9">
      <g>
       <use xlink:href="#ma9d554d3f8" x="494.196806" y="330.978" style="stroke: #000000; stroke-width: 0.8"/>
      </g>
     </g>
     <g id="text_9">
      <!-- 180 -->
      <g transform="translate(480.835556 348.615812) scale(0.14 -0.14)">
       <use xlink:href="#DejaVuSans-31"/>
       <use xlink:href="#DejaVuSans-38" transform="translate(63.623047 0)"/>
       <use xlink:href="#DejaVuSans-30" transform="translate(127.246094 0)"/>
      </g>
     </g>
    </g>
    <g id="xtick_10">
     <g id="line2d_10">
      <g>
       <use xlink:href="#ma9d554d3f8" x="548.10625" y="330.978" style="stroke: #000000; stroke-width: 0.8"/>
      </g>
     </g>
     <g id="text_10">
      <!-- 200 -->
      <g transform="translate(534.745 348.615812) scale(0.14 -0.14)">
       <use xlink:href="#DejaVuSans-32"/>
       <use xlink:href="#DejaVuSans-30" transform="translate(63.623047 0)"/>
       <use xlink:href="#DejaVuSans-30" transform="translate(127.246094 0)"/>
      </g>
     </g>
    </g>
    <g id="text_11">
     <!-- Time / h -->
     <g transform="translate(277.142969 366.165187) scale(0.14 -0.14)">
      <defs>
       <path id="DejaVuSans-54" d="M -19 4666 
L 3928 4666 
L 3928 4134 
L 2272 4134 
L 2272 0 
L 1638 0 
L 1638 4134 
L -19 4134 
L -19 4666 
z
" transform="scale(0.015625)"/>
       <path id="DejaVuSans-69" d="M 603 3500 
L 1178 3500 
L 1178 0 
L 603 0 
L 603 3500 
z
M 603 4863 
L 1178 4863 
L 1178 4134 
L 603 4134 
L 603 4863 
z
" transform="scale(0.015625)"/>
       <path id="DejaVuSans-6d" d="M 3328 2828 
Q 3544 3216 3844 3400 
Q 4144 3584 4550 3584 
Q 5097 3584 5394 3201 
Q 5691 2819 5691 2113 
L 5691 0 
L 5113 0 
L 5113 2094 
Q 5113 2597 4934 2840 
Q 4756 3084 4391 3084 
Q 3944 3084 3684 2787 
Q 3425 2491 3425 1978 
L 3425 0 
L 2847 0 
L 2847 2094 
Q 2847 2600 2669 2842 
Q 2491 3084 2119 3084 
Q 1678 3084 1418 2786 
Q 1159 2488 1159 1978 
L 1159 0 
L 581 0 
L 581 3500 
L 1159 3500 
L 1159 2956 
Q 1356 3278 1631 3431 
Q 1906 3584 2284 3584 
Q 2666 3584 2933 3390 
Q 3200 3197 3328 2828 
z
" transform="scale(0.015625)"/>
       <path id="DejaVuSans-65" d="M 3597 1894 
L 3597 1613 
L 953 1613 
Q 991 1019 1311 708 
Q 1631 397 2203 397 
Q 2534 397 2845 478 
Q 3156 559 3463 722 
L 3463 178 
Q 3153 47 2828 -22 
Q 2503 -91 2169 -91 
Q 1331 -91 842 396 
Q 353 884 353 1716 
Q 353 2575 817 3079 
Q 1281 3584 2069 3584 
Q 2775 3584 3186 3129 
Q 3597 2675 3597 1894 
z
M 3022 2063 
Q 3016 2534 2758 2815 
Q 2500 3097 2075 3097 
Q 1594 3097 1305 2825 
Q 1016 2553 972 2059 
L 3022 2063 
z
" transform="scale(0.015625)"/>
       <path id="DejaVuSans-20" transform="scale(0.015625)"/>
       <path id="DejaVuSans-2f" d="M 1625 4666 
L 2156 4666 
L 531 -594 
L 0 -594 
L 1625 4666 
z
" transform="scale(0.015625)"/>
       <path id="DejaVuSans-68" d="M 3513 2113 
L 3513 0 
L 2938 0 
L 2938 2094 
Q 2938 2591 2744 2837 
Q 2550 3084 2163 3084 
Q 1697 3084 1428 2787 
Q 1159 2491 1159 1978 
L 1159 0 
L 581 0 
L 581 4863 
L 1159 4863 
L 1159 2956 
Q 1366 3272 1645 3428 
Q 1925 3584 2291 3584 
Q 2894 3584 3203 3211 
Q 3513 2838 3513 2113 
z
" transform="scale(0.015625)"/>
      </defs>
      <use xlink:href="#DejaVuSans-54"/>
      <use xlink:href="#DejaVuSans-69" transform="translate(57.958984 0)"/>
      <use xlink:href="#DejaVuSans-6d" transform="translate(85.742188 0)"/>
      <use xlink:href="#DejaVuSans-65" transform="translate(183.154297 0)"/>
      <use xlink:href="#DejaVuSans-20" transform="translate(244.677734 0)"/>
      <use xlink:href="#DejaVuSans-2f" transform="translate(276.464844 0)"/>
      <use xlink:href="#DejaVuSans-20" transform="translate(310.15625 0)"/>
      <use xlink:href="#DejaVuSans-68" transform="translate(341.943359 0)"/>
     </g>
    </g>
   </g>
   <g id="matplotlib.axis_2">
    <g id="ytick_1">
     <g id="line2d_11">
      <defs>
       <path id="m0ab41a7b4e" d="M 0 0 
L -3.5 0 
" style="stroke: #000000; stroke-width: 0.8"/>
      </defs>
      <g>
       <use xlink:href="#m0ab41a7b4e" x="62.92125" y="323.393921" style="stroke: #000000; stroke-width: 0.8"/>
      </g>
     </g>
     <g id="text_12">
      <!-- 0.65 -->
      <g transform="translate(24.749375 328.712827) scale(0.14 -0.14)">
       <defs>
        <path id="DejaVuSans-2e" d="M 684 794 
L 1344 794 
L 1344 0 
L 684 0 
L 684 794 
z
" transform="scale(0.015625)"/>
        <path id="DejaVuSans-35" d="M 691 4666 
L 3169 4666 
L 3169 4134 
L 1269 4134 
L 1269 2991 
Q 1406 3038 1543 3061 
Q 1681 3084 1819 3084 
Q 2600 3084 3056 2656 
Q 3513 2228 3513 1497 
Q 3513 744 3044 326 
Q 2575 -91 1722 -91 
Q 1428 -91 1123 -41 
Q 819 9 494 109 
L 494 744 
Q 775 591 1075 516 
Q 1375 441 1709 441 
Q 2250 441 2565 725 
Q 2881 1009 2881 1497 
Q 2881 1984 2565 2268 
Q 2250 2553 1709 2553 
Q 1456 2553 1204 2497 
Q 953 2441 691 2322 
L 691 4666 
z
" transform="scale(0.015625)"/>
       </defs>
       <use xlink:href="#DejaVuSans-30"/>
       <use xlink:href="#DejaVuSans-2e" transform="translate(63.623047 0)"/>
       <use xlink:href="#DejaVuSans-36" transform="translate(95.410156 0)"/>
       <use xlink:href="#DejaVuSans-35" transform="translate(159.033203 0)"/>
      </g>
     </g>
    </g>
    <g id="ytick_2">
     <g id="line2d_12">
      <g>
       <use xlink:href="#m0ab41a7b4e" x="62.92125" y="280.325815" style="stroke: #000000; stroke-width: 0.8"/>
      </g>
     </g>
     <g id="text_13">
      <!-- 0.70 -->
      <g transform="translate(24.749375 285.644721) scale(0.14 -0.14)">
       <defs>
        <path id="DejaVuSans-37" d="M 525 4666 
L 3525 4666 
L 3525 4397 
L 1831 0 
L 1172 0 
L 2766 4134 
L 525 4134 
L 525 4666 
z
" transform="scale(0.015625)"/>
       </defs>
       <use xlink:href="#DejaVuSans-30"/>
       <use xlink:href="#DejaVuSans-2e" transform="translate(63.623047 0)"/>
       <use xlink:href="#DejaVuSans-37" transform="translate(95.410156 0)"/>
       <use xlink:href="#DejaVuSans-30" transform="translate(159.033203 0)"/>
      </g>
     </g>
    </g>
    <g id="ytick_3">
     <g id="line2d_13">
      <g>
       <use xlink:href="#m0ab41a7b4e" x="62.92125" y="237.25771" style="stroke: #000000; stroke-width: 0.8"/>
      </g>
     </g>
     <g id="text_14">
      <!-- 0.75 -->
      <g transform="translate(24.749375 242.576616) scale(0.14 -0.14)">
       <use xlink:href="#DejaVuSans-30"/>
       <use xlink:href="#DejaVuSans-2e" transform="translate(63.623047 0)"/>
       <use xlink:href="#DejaVuSans-37" transform="translate(95.410156 0)"/>
       <use xlink:href="#DejaVuSans-35" transform="translate(159.033203 0)"/>
      </g>
     </g>
    </g>
    <g id="ytick_4">
     <g id="line2d_14">
      <g>
       <use xlink:href="#m0ab41a7b4e" x="62.92125" y="194.189604" style="stroke: #000000; stroke-width: 0.8"/>
      </g>
     </g>
     <g id="text_15">
      <!-- 0.80 -->
      <g transform="translate(24.749375 199.50851) scale(0.14 -0.14)">
       <use xlink:href="#DejaVuSans-30"/>
       <use xlink:href="#DejaVuSans-2e" transform="translate(63.623047 0)"/>
       <use xlink:href="#DejaVuSans-38" transform="translate(95.410156 0)"/>
       <use xlink:href="#DejaVuSans-30" transform="translate(159.033203 0)"/>
      </g>
     </g>
    </g>
    <g id="ytick_5">
     <g id="line2d_15">
      <g>
       <use xlink:href="#m0ab41a7b4e" x="62.92125" y="151.121499" style="stroke: #000000; stroke-width: 0.8"/>
      </g>
     </g>
     <g id="text_16">
      <!-- 0.85 -->
      <g transform="translate(24.749375 156.440405) scale(0.14 -0.14)">
       <use xlink:href="#DejaVuSans-30"/>
       <use xlink:href="#DejaVuSans-2e" transform="translate(63.623047 0)"/>
       <use xlink:href="#DejaVuSans-38" transform="translate(95.410156 0)"/>
       <use xlink:href="#DejaVuSans-35" transform="translate(159.033203 0)"/>
      </g>
     </g>
    </g>
    <g id="ytick_6">
     <g id="line2d_16">
      <g>
       <use xlink:href="#m0ab41a7b4e" x="62.92125" y="108.053393" style="stroke: #000000; stroke-width: 0.8"/>
      </g>
     </g>
     <g id="text_17">
      <!-- 0.90 -->
      <g transform="translate(24.749375 113.372299) scale(0.14 -0.14)">
       <defs>
        <path id="DejaVuSans-39" d="M 703 97 
L 703 672 
Q 941 559 1184 500 
Q 1428 441 1663 441 
Q 2288 441 2617 861 
Q 2947 1281 2994 2138 
Q 2813 1869 2534 1725 
Q 2256 1581 1919 1581 
Q 1219 1581 811 2004 
Q 403 2428 403 3163 
Q 403 3881 828 4315 
Q 1253 4750 1959 4750 
Q 2769 4750 3195 4129 
Q 3622 3509 3622 2328 
Q 3622 1225 3098 567 
Q 2575 -91 1691 -91 
Q 1453 -91 1209 -44 
Q 966 3 703 97 
z
M 1959 2075 
Q 2384 2075 2632 2365 
Q 2881 2656 2881 3163 
Q 2881 3666 2632 3958 
Q 2384 4250 1959 4250 
Q 1534 4250 1286 3958 
Q 1038 3666 1038 3163 
Q 1038 2656 1286 2365 
Q 1534 2075 1959 2075 
z
" transform="scale(0.015625)"/>
       </defs>
       <use xlink:href="#DejaVuSans-30"/>
       <use xlink:href="#DejaVuSans-2e" transform="translate(63.623047 0)"/>
       <use xlink:href="#DejaVuSans-39" transform="translate(95.410156 0)"/>
       <use xlink:href="#DejaVuSans-30" transform="translate(159.033203 0)"/>
      </g>
     </g>
    </g>
    <g id="ytick_7">
     <g id="line2d_17">
      <g>
       <use xlink:href="#m0ab41a7b4e" x="62.92125" y="64.985287" style="stroke: #000000; stroke-width: 0.8"/>
      </g>
     </g>
     <g id="text_18">
      <!-- 0.95 -->
      <g transform="translate(24.749375 70.304194) scale(0.14 -0.14)">
       <use xlink:href="#DejaVuSans-30"/>
       <use xlink:href="#DejaVuSans-2e" transform="translate(63.623047 0)"/>
       <use xlink:href="#DejaVuSans-39" transform="translate(95.410156 0)"/>
       <use xlink:href="#DejaVuSans-35" transform="translate(159.033203 0)"/>
      </g>
     </g>
    </g>
    <g id="ytick_8">
     <g id="line2d_18">
      <g>
       <use xlink:href="#m0ab41a7b4e" x="62.92125" y="21.917182" style="stroke: #000000; stroke-width: 0.8"/>
      </g>
     </g>
     <g id="text_19">
      <!-- 1.00 -->
      <g transform="translate(24.749375 27.236088) scale(0.14 -0.14)">
       <use xlink:href="#DejaVuSans-31"/>
       <use xlink:href="#DejaVuSans-2e" transform="translate(63.623047 0)"/>
       <use xlink:href="#DejaVuSans-30" transform="translate(95.410156 0)"/>
       <use xlink:href="#DejaVuSans-30" transform="translate(159.033203 0)"/>
      </g>
     </g>
    </g>
    <g id="text_20">
     <!-- Normalized Heat Transfer Rate -->
     <g transform="translate(17.837813 276.255719) rotate(-90) scale(0.14 -0.14)">
      <defs>
       <path id="DejaVuSans-4e" d="M 628 4666 
L 1478 4666 
L 3547 763 
L 3547 4666 
L 4159 4666 
L 4159 0 
L 3309 0 
L 1241 3903 
L 1241 0 
L 628 0 
L 628 4666 
z
" transform="scale(0.015625)"/>
       <path id="DejaVuSans-6f" d="M 1959 3097 
Q 1497 3097 1228 2736 
Q 959 2375 959 1747 
Q 959 1119 1226 758 
Q 1494 397 1959 397 
Q 2419 397 2687 759 
Q 2956 1122 2956 1747 
Q 2956 2369 2687 2733 
Q 2419 3097 1959 3097 
z
M 1959 3584 
Q 2709 3584 3137 3096 
Q 3566 2609 3566 1747 
Q 3566 888 3137 398 
Q 2709 -91 1959 -91 
Q 1206 -91 779 398 
Q 353 888 353 1747 
Q 353 2609 779 3096 
Q 1206 3584 1959 3584 
z
" transform="scale(0.015625)"/>
       <path id="DejaVuSans-72" d="M 2631 2963 
Q 2534 3019 2420 3045 
Q 2306 3072 2169 3072 
Q 1681 3072 1420 2755 
Q 1159 2438 1159 1844 
L 1159 0 
L 581 0 
L 581 3500 
L 1159 3500 
L 1159 2956 
Q 1341 3275 1631 3429 
Q 1922 3584 2338 3584 
Q 2397 3584 2469 3576 
Q 2541 3569 2628 3553 
L 2631 2963 
z
" transform="scale(0.015625)"/>
       <path id="DejaVuSans-61" d="M 2194 1759 
Q 1497 1759 1228 1600 
Q 959 1441 959 1056 
Q 959 750 1161 570 
Q 1363 391 1709 391 
Q 2188 391 2477 730 
Q 2766 1069 2766 1631 
L 2766 1759 
L 2194 1759 
z
M 3341 1997 
L 3341 0 
L 2766 0 
L 2766 531 
Q 2569 213 2275 61 
Q 1981 -91 1556 -91 
Q 1019 -91 701 211 
Q 384 513 384 1019 
Q 384 1609 779 1909 
Q 1175 2209 1959 2209 
L 2766 2209 
L 2766 2266 
Q 2766 2663 2505 2880 
Q 2244 3097 1772 3097 
Q 1472 3097 1187 3025 
Q 903 2953 641 2809 
L 641 3341 
Q 956 3463 1253 3523 
Q 1550 3584 1831 3584 
Q 2591 3584 2966 3190 
Q 3341 2797 3341 1997 
z
" transform="scale(0.015625)"/>
       <path id="DejaVuSans-6c" d="M 603 4863 
L 1178 4863 
L 1178 0 
L 603 0 
L 603 4863 
z
" transform="scale(0.015625)"/>
       <path id="DejaVuSans-7a" d="M 353 3500 
L 3084 3500 
L 3084 2975 
L 922 459 
L 3084 459 
L 3084 0 
L 275 0 
L 275 525 
L 2438 3041 
L 353 3041 
L 353 3500 
z
" transform="scale(0.015625)"/>
       <path id="DejaVuSans-64" d="M 2906 2969 
L 2906 4863 
L 3481 4863 
L 3481 0 
L 2906 0 
L 2906 525 
Q 2725 213 2448 61 
Q 2172 -91 1784 -91 
Q 1150 -91 751 415 
Q 353 922 353 1747 
Q 353 2572 751 3078 
Q 1150 3584 1784 3584 
Q 2172 3584 2448 3432 
Q 2725 3281 2906 2969 
z
M 947 1747 
Q 947 1113 1208 752 
Q 1469 391 1925 391 
Q 2381 391 2643 752 
Q 2906 1113 2906 1747 
Q 2906 2381 2643 2742 
Q 2381 3103 1925 3103 
Q 1469 3103 1208 2742 
Q 947 2381 947 1747 
z
" transform="scale(0.015625)"/>
       <path id="DejaVuSans-48" d="M 628 4666 
L 1259 4666 
L 1259 2753 
L 3553 2753 
L 3553 4666 
L 4184 4666 
L 4184 0 
L 3553 0 
L 3553 2222 
L 1259 2222 
L 1259 0 
L 628 0 
L 628 4666 
z
" transform="scale(0.015625)"/>
       <path id="DejaVuSans-74" d="M 1172 4494 
L 1172 3500 
L 2356 3500 
L 2356 3053 
L 1172 3053 
L 1172 1153 
Q 1172 725 1289 603 
Q 1406 481 1766 481 
L 2356 481 
L 2356 0 
L 1766 0 
Q 1100 0 847 248 
Q 594 497 594 1153 
L 594 3053 
L 172 3053 
L 172 3500 
L 594 3500 
L 594 4494 
L 1172 4494 
z
" transform="scale(0.015625)"/>
       <path id="DejaVuSans-6e" d="M 3513 2113 
L 3513 0 
L 2938 0 
L 2938 2094 
Q 2938 2591 2744 2837 
Q 2550 3084 2163 3084 
Q 1697 3084 1428 2787 
Q 1159 2491 1159 1978 
L 1159 0 
L 581 0 
L 581 3500 
L 1159 3500 
L 1159 2956 
Q 1366 3272 1645 3428 
Q 1925 3584 2291 3584 
Q 2894 3584 3203 3211 
Q 3513 2838 3513 2113 
z
" transform="scale(0.015625)"/>
       <path id="DejaVuSans-73" d="M 2834 3397 
L 2834 2853 
Q 2591 2978 2328 3040 
Q 2066 3103 1784 3103 
Q 1356 3103 1142 2972 
Q 928 2841 928 2578 
Q 928 2378 1081 2264 
Q 1234 2150 1697 2047 
L 1894 2003 
Q 2506 1872 2764 1633 
Q 3022 1394 3022 966 
Q 3022 478 2636 193 
Q 2250 -91 1575 -91 
Q 1294 -91 989 -36 
Q 684 19 347 128 
L 347 722 
Q 666 556 975 473 
Q 1284 391 1588 391 
Q 1994 391 2212 530 
Q 2431 669 2431 922 
Q 2431 1156 2273 1281 
Q 2116 1406 1581 1522 
L 1381 1569 
Q 847 1681 609 1914 
Q 372 2147 372 2553 
Q 372 3047 722 3315 
Q 1072 3584 1716 3584 
Q 2034 3584 2315 3537 
Q 2597 3491 2834 3397 
z
" transform="scale(0.015625)"/>
       <path id="DejaVuSans-66" d="M 2375 4863 
L 2375 4384 
L 1825 4384 
Q 1516 4384 1395 4259 
Q 1275 4134 1275 3809 
L 1275 3500 
L 2222 3500 
L 2222 3053 
L 1275 3053 
L 1275 0 
L 697 0 
L 697 3053 
L 147 3053 
L 147 3500 
L 697 3500 
L 697 3744 
Q 697 4328 969 4595 
Q 1241 4863 1831 4863 
L 2375 4863 
z
" transform="scale(0.015625)"/>
       <path id="DejaVuSans-52" d="M 2841 2188 
Q 3044 2119 3236 1894 
Q 3428 1669 3622 1275 
L 4263 0 
L 3584 0 
L 2988 1197 
Q 2756 1666 2539 1819 
Q 2322 1972 1947 1972 
L 1259 1972 
L 1259 0 
L 628 0 
L 628 4666 
L 2053 4666 
Q 2853 4666 3247 4331 
Q 3641 3997 3641 3322 
Q 3641 2881 3436 2590 
Q 3231 2300 2841 2188 
z
M 1259 4147 
L 1259 2491 
L 2053 2491 
Q 2509 2491 2742 2702 
Q 2975 2913 2975 3322 
Q 2975 3731 2742 3939 
Q 2509 4147 2053 4147 
L 1259 4147 
z
" transform="scale(0.015625)"/>
      </defs>
      <use xlink:href="#DejaVuSans-4e"/>
      <use xlink:href="#DejaVuSans-6f" transform="translate(74.804688 0)"/>
      <use xlink:href="#DejaVuSans-72" transform="translate(135.986328 0)"/>
      <use xlink:href="#DejaVuSans-6d" transform="translate(175.349609 0)"/>
      <use xlink:href="#DejaVuSans-61" transform="translate(272.761719 0)"/>
      <use xlink:href="#DejaVuSans-6c" transform="translate(334.041016 0)"/>
      <use xlink:href="#DejaVuSans-69" transform="translate(361.824219 0)"/>
      <use xlink:href="#DejaVuSans-7a" transform="translate(389.607422 0)"/>
      <use xlink:href="#DejaVuSans-65" transform="translate(442.097656 0)"/>
      <use xlink:href="#DejaVuSans-64" transform="translate(503.621094 0)"/>
      <use xlink:href="#DejaVuSans-20" transform="translate(567.097656 0)"/>
      <use xlink:href="#DejaVuSans-48" transform="translate(598.884766 0)"/>
      <use xlink:href="#DejaVuSans-65" transform="translate(674.080078 0)"/>
      <use xlink:href="#DejaVuSans-61" transform="translate(735.603516 0)"/>
      <use xlink:href="#DejaVuSans-74" transform="translate(796.882812 0)"/>
      <use xlink:href="#DejaVuSans-20" transform="translate(836.091797 0)"/>
      <use xlink:href="#DejaVuSans-54" transform="translate(867.878906 0)"/>
      <use xlink:href="#DejaVuSans-72" transform="translate(914.212891 0)"/>
      <use xlink:href="#DejaVuSans-61" transform="translate(955.326172 0)"/>
      <use xlink:href="#DejaVuSans-6e" transform="translate(1016.605469 0)"/>
      <use xlink:href="#DejaVuSans-73" transform="translate(1079.984375 0)"/>
      <use xlink:href="#DejaVuSans-66" transform="translate(1132.083984 0)"/>
      <use xlink:href="#DejaVuSans-65" transform="translate(1167.289062 0)"/>
      <use xlink:href="#DejaVuSans-72" transform="translate(1228.8125 0)"/>
      <use xlink:href="#DejaVuSans-20" transform="translate(1269.925781 0)"/>
      <use xlink:href="#DejaVuSans-52" transform="translate(1301.712891 0)"/>
      <use xlink:href="#DejaVuSans-61" transform="translate(1368.945312 0)"/>
      <use xlink:href="#DejaVuSans-74" transform="translate(1430.224609 0)"/>
      <use xlink:href="#DejaVuSans-65" transform="translate(1469.433594 0)"/>
     </g>
    </g>
   </g>
   <g id="line2d_19">
    <path d="M 62.92125 29.706077 
L 65.616722 41.098984 
L 68.312194 48.556768 
L 71.007667 52.456021 
L 73.703139 53.182851 
L 76.398611 51.289717 
L 79.094083 47.34483 
L 81.789556 42.178663 
L 87.1805 30.88761 
L 89.875972 26.289535 
L 92.571444 23.065563 
L 95.266917 21.917182 
L 97.962389 22.874994 
L 100.657861 26.282816 
L 103.353333 31.820561 
L 106.048806 39.450994 
L 108.744278 48.67956 
L 114.135222 69.906056 
L 116.830694 80.697058 
L 119.526167 90.54034 
L 122.221639 99.039221 
L 124.917111 105.532468 
L 127.612583 109.681416 
L 130.308056 111.346338 
L 133.003528 110.215518 
L 135.699 106.707292 
L 138.394472 100.796978 
L 141.089944 93.131174 
L 143.785417 84.103397 
L 149.176361 64.753605 
L 151.871833 55.788806 
L 154.567306 48.068598 
L 157.262778 42.346868 
L 159.95825 38.719779 
L 162.653722 37.738405 
L 165.349194 39.219869 
L 168.044667 43.228231 
L 170.740139 49.468209 
L 173.435611 57.430801 
L 176.131083 66.791399 
L 181.522028 86.601755 
L 184.2175 95.772776 
L 186.912972 103.667124 
L 189.608444 109.575836 
L 192.303917 113.284123 
L 194.999389 114.4017 
L 197.694861 113.037266 
L 200.390333 109.019396 
L 203.085806 102.95502 
L 205.781278 94.926185 
L 208.47675 85.741811 
L 213.867694 65.968676 
L 216.563167 56.850244 
L 219.258639 49.078386 
L 221.954111 43.125779 
L 224.649583 39.500216 
L 227.345056 38.338333 
L 230.040528 39.76502 
L 232.736 43.747502 
L 235.431472 49.846517 
L 238.126944 57.911323 
L 240.822417 67.120974 
L 246.213361 86.86199 
L 248.908833 95.99227 
L 251.604306 103.768902 
L 254.299778 109.755434 
L 256.99525 113.369263 
L 259.690722 114.596181 
L 262.386194 113.106158 
L 265.081667 109.181158 
L 267.777139 103.001597 
L 270.472611 94.975166 
L 273.168083 85.768247 
L 278.559028 66.050402 
L 281.2545 56.913982 
L 283.949972 49.132457 
L 286.645444 43.141368 
L 289.340917 39.538078 
L 292.036389 38.300692 
L 294.731861 39.846998 
L 297.427333 43.729446 
L 300.122806 49.963692 
L 302.818278 57.900529 
L 305.51375 67.136295 
L 310.904694 86.88644 
L 313.600167 95.984722 
L 316.295639 103.833745 
L 318.991111 109.735996 
L 321.686583 113.431699 
L 324.382056 114.577018 
L 327.077528 113.121791 
L 329.773 109.201598 
L 332.468472 102.940867 
L 335.163944 95.050038 
L 340.554889 75.938066 
L 343.250361 66.038494 
L 345.945833 56.932061 
L 348.641306 49.096859 
L 351.336778 43.168735 
L 354.03225 39.466991 
L 356.727722 38.384127 
L 359.423194 39.769712 
L 362.118667 43.772434 
L 364.814139 49.935881 
L 367.509611 57.867232 
L 370.205083 67.171442 
L 375.596028 86.900887 
L 378.2915 95.956172 
L 380.986972 103.847117 
L 383.682444 109.746755 
L 386.377917 113.484643 
L 389.073389 114.577634 
L 391.768861 113.11459 
L 394.464333 109.152461 
L 397.159806 103.019084 
L 399.855278 94.983812 
L 402.55075 85.807861 
L 407.941694 66.053716 
L 410.637167 56.922068 
L 413.332639 49.066022 
L 416.028111 43.182304 
L 418.723583 39.502536 
L 421.419056 38.422921 
L 424.114528 39.81993 
L 426.81 43.782195 
L 429.505472 49.903651 
L 432.200944 57.952695 
L 434.896417 67.11315 
L 440.287361 86.879211 
L 442.982833 96.06769 
L 445.678306 103.827816 
L 448.373778 109.744557 
L 451.06925 113.415946 
L 453.764722 114.588658 
L 456.460194 113.119328 
L 459.155667 109.206377 
L 461.851139 103.017996 
L 464.546611 95.008641 
L 467.242083 85.795665 
L 472.633028 66.073748 
L 475.3285 56.897615 
L 478.023972 49.170627 
L 480.719444 43.175222 
L 483.414917 39.5076 
L 486.110389 38.333015 
L 488.805861 39.831769 
L 491.501333 43.722415 
L 494.196806 49.977525 
L 496.892278 57.916009 
L 499.58775 67.187051 
L 504.978694 86.866178 
L 507.674167 96.037516 
L 510.369639 103.831232 
L 513.065111 109.780228 
L 515.760583 113.409302 
L 518.456056 114.621065 
L 521.151528 113.140596 
L 523.847 109.175867 
L 526.542472 103.002035 
L 529.237944 95.026653 
L 531.933417 85.720012 
L 537.324361 66.020149 
L 540.019833 56.954666 
L 542.715306 49.115636 
L 545.410778 43.123152 
L 548.10625 39.513061 
L 550.801722 38.348633 
L 553.497194 39.811441 
L 556.192667 43.780355 
L 558.888139 49.952674 
L 561.583611 57.932464 
L 564.279083 67.205627 
L 569.6675 86.92866 
L 569.6675 86.92866 
" clip-path="url(#p0dd1b5daa2)" style="fill: none; stroke: #000004; stroke-width: 1.5; stroke-linecap: square"/>
   </g>
   <g id="line2d_20">
    <path d="M 62.92125 21.917182 
L 65.616722 50.100572 
L 68.312194 76.495916 
L 71.007667 100.546048 
L 73.703139 121.527749 
L 76.398611 138.856658 
L 79.094083 151.969635 
L 81.789556 160.761633 
L 84.485028 165.039486 
L 87.1805 165.064347 
L 89.875972 161.346728 
L 92.571444 154.303721 
L 95.266917 145.091624 
L 103.353333 112.394186 
L 106.048806 103.179747 
L 108.744278 96.184834 
L 111.43975 92.19938 
L 114.135222 91.361254 
L 116.830694 94.199326 
L 119.526167 100.245553 
L 122.221639 109.472447 
L 124.917111 121.13796 
L 127.612583 134.593472 
L 133.003528 163.461106 
L 135.699 177.10799 
L 138.394472 188.765988 
L 141.089944 197.982276 
L 143.785417 203.949229 
L 146.480889 206.468322 
L 149.176361 205.151352 
L 151.871833 200.359708 
L 154.567306 192.245451 
L 157.262778 181.68064 
L 159.95825 168.97522 
L 168.044667 128.662209 
L 170.740139 117.482872 
L 173.435611 108.698632 
L 176.131083 103.213272 
L 178.826556 101.068291 
L 181.522028 102.68401 
L 184.2175 107.776453 
L 186.912972 116.145417 
L 189.608444 126.981941 
L 192.303917 139.810581 
L 197.694861 167.56709 
L 200.390333 180.492792 
L 203.085806 191.927282 
L 205.781278 200.6284 
L 208.47675 206.369138 
L 211.172222 208.481273 
L 213.867694 206.96586 
L 216.563167 201.953072 
L 219.258639 193.760446 
L 221.954111 182.86695 
L 224.649583 170.157922 
L 230.040528 142.434661 
L 232.736 129.464104 
L 235.431472 118.082965 
L 238.126944 109.437266 
L 240.822417 103.736815 
L 243.517889 101.6957 
L 246.213361 103.103663 
L 248.908833 108.136225 
L 251.604306 116.338126 
L 254.299778 127.281273 
L 256.99525 139.976067 
L 262.386194 167.707113 
L 265.081667 180.761576 
L 267.777139 192.034165 
L 270.472611 200.737779 
L 273.168083 206.446246 
L 275.863556 208.58655 
L 278.559028 207.118537 
L 281.2545 202.079571 
L 283.949972 193.872326 
L 286.645444 182.923734 
L 289.340917 170.244488 
L 294.731861 142.579838 
L 297.427333 129.467808 
L 300.122806 118.274138 
L 302.818278 109.448016 
L 305.51375 103.782657 
L 308.209222 101.625417 
L 310.904694 103.159987 
L 313.600167 108.14704 
L 316.295639 116.449544 
L 318.991111 127.274575 
L 321.686583 140.083734 
L 327.077528 167.74977 
L 329.773 180.811415 
L 332.468472 191.970984 
L 335.163944 200.864709 
L 337.859417 206.338096 
L 340.554889 208.695311 
L 343.250361 207.125177 
L 345.945833 202.128165 
L 348.641306 193.845732 
L 351.336778 182.984824 
L 354.03225 170.167387 
L 362.118667 129.547662 
L 364.814139 118.254063 
L 367.509611 109.41927 
L 370.205083 103.848741 
L 372.900556 101.54456 
L 375.596028 103.195746 
L 378.2915 108.122275 
L 380.986972 116.483214 
L 383.682444 127.304632 
L 386.377917 140.173001 
L 394.464333 180.759742 
L 397.159806 192.098118 
L 399.855278 200.790683 
L 402.55075 206.543576 
L 405.246222 208.639823 
L 407.941694 207.166741 
L 410.637167 202.134771 
L 413.332639 193.823204 
L 416.028111 183.024229 
L 418.723583 170.23711 
L 426.81 129.579272 
L 429.505472 118.226073 
L 432.200944 109.554997 
L 434.896417 103.78268 
L 437.591889 101.773925 
L 440.287361 103.179694 
L 442.982833 108.29208 
L 445.678306 116.470051 
L 448.373778 127.315454 
L 451.06925 140.091229 
L 456.460194 167.778064 
L 459.155667 180.851293 
L 461.851139 192.113624 
L 464.546611 200.843207 
L 467.242083 206.545124 
L 469.937556 208.595132 
L 472.633028 207.214471 
L 475.3285 202.120576 
L 478.023972 193.989536 
L 480.719444 183.03426 
L 483.414917 170.263783 
L 488.805861 142.616396 
L 491.501333 129.513291 
L 494.196806 118.346101 
L 496.892278 109.519628 
L 499.58775 103.901121 
L 502.283222 101.739369 
L 504.978694 103.175436 
L 507.674167 108.263594 
L 510.369639 116.488395 
L 513.065111 127.379045 
L 515.760583 140.095982 
L 521.151528 167.823046 
L 523.847 180.824656 
L 526.542472 192.108164 
L 529.237944 200.886077 
L 531.933417 206.457806 
L 534.628889 208.734745 
L 537.324361 207.159145 
L 540.019833 202.220225 
L 542.715306 193.932653 
L 545.410778 182.981307 
L 548.10625 170.290942 
L 553.497194 142.606294 
L 556.192667 129.6118 
L 558.888139 118.328062 
L 561.583611 109.55847 
L 564.279083 103.9422 
L 566.974556 101.674441 
L 569.6675 103.288249 
L 569.6675 103.288249 
" clip-path="url(#p0dd1b5daa2)" style="fill: none; stroke: #fca50a; stroke-width: 1.5; stroke-linecap: square"/>
   </g>
   <g id="line2d_21">
    <path d="M 62.92125 283.161403 
L 65.616722 260.912739 
L 68.312194 231.917716 
L 71.007667 198.152297 
L 76.398611 125.68278 
L 79.094083 91.91736 
L 81.789556 62.922337 
L 84.485028 40.673673 
L 87.1805 26.687578 
L 89.875972 21.917182 
L 92.571444 26.687578 
L 95.266917 40.673673 
L 97.962389 62.922337 
L 100.657861 91.91736 
L 103.353333 125.68278 
L 108.744278 198.152297 
L 111.43975 231.917716 
L 114.135222 260.912739 
L 116.830694 283.161403 
L 119.526167 297.147498 
L 122.221639 301.917894 
L 124.917111 297.147498 
L 127.612583 283.161403 
L 130.308056 260.912739 
L 133.003528 231.917716 
L 135.699 198.152297 
L 141.089944 125.68278 
L 143.785417 91.91736 
L 146.480889 62.922337 
L 149.176361 40.673673 
L 151.871833 26.687578 
L 154.567306 21.917182 
L 157.262778 26.687578 
L 159.95825 40.673673 
L 162.653722 62.922337 
L 165.349194 91.91736 
L 168.044667 125.68278 
L 173.435611 198.152297 
L 176.131083 231.917716 
L 178.826556 260.912739 
L 181.522028 283.161403 
L 184.2175 297.147498 
L 186.912972 301.917894 
L 189.608444 297.147498 
L 192.303917 283.161403 
L 194.999389 260.912739 
L 197.694861 231.917716 
L 200.390333 198.152297 
L 205.781278 125.68278 
L 208.47675 91.91736 
L 211.172222 62.922337 
L 213.867694 40.673673 
L 216.563167 26.687578 
L 219.258639 21.917182 
L 221.954111 26.687578 
L 224.649583 40.673673 
L 227.345056 62.922337 
L 230.040528 91.91736 
L 232.736 125.68278 
L 238.126944 198.152297 
L 240.822417 231.917716 
L 243.517889 260.912739 
L 246.213361 283.161403 
L 248.908833 297.147498 
L 251.604306 301.917894 
L 254.299778 297.147498 
L 256.99525 283.161403 
L 259.690722 260.912739 
L 262.386194 231.917716 
L 265.081667 198.152297 
L 270.472611 125.68278 
L 273.168083 91.91736 
L 275.863556 62.922337 
L 278.559028 40.673673 
L 281.2545 26.687578 
L 283.949972 21.917182 
L 286.645444 26.687578 
L 289.340917 40.673673 
L 292.036389 62.922337 
L 294.731861 91.91736 
L 297.427333 125.68278 
L 302.818278 198.152297 
L 305.51375 231.917716 
L 308.209222 260.912739 
L 310.904694 283.161403 
L 313.600167 297.147498 
L 316.295639 301.917894 
L 318.991111 297.147498 
L 321.686583 283.161403 
L 324.382056 260.912739 
L 327.077528 231.917716 
L 329.773 198.152297 
L 335.163944 125.68278 
L 337.859417 91.91736 
L 340.554889 62.922337 
L 343.250361 40.673673 
L 345.945833 26.687578 
L 348.641306 21.917182 
L 351.336778 26.687578 
L 354.03225 40.673673 
L 356.727722 62.922337 
L 359.423194 91.91736 
L 362.118667 125.68278 
L 367.509611 198.152297 
L 370.205083 231.917716 
L 372.900556 260.912739 
L 375.596028 283.161403 
L 378.2915 297.147498 
L 380.986972 301.917894 
L 383.682444 297.147498 
L 386.377917 283.161403 
L 389.073389 260.912739 
L 391.768861 231.917716 
L 394.464333 198.152297 
L 399.855278 125.68278 
L 402.55075 91.91736 
L 405.246222 62.922337 
L 407.941694 40.673673 
L 410.637167 26.687578 
L 413.332639 21.917182 
L 416.028111 26.687578 
L 418.723583 40.673673 
L 421.419056 62.922337 
L 424.114528 91.91736 
L 426.81 125.68278 
L 432.200944 198.152297 
L 434.896417 231.917716 
L 437.591889 260.912739 
L 440.287361 283.161403 
L 442.982833 297.147498 
L 445.678306 301.917894 
L 448.373778 297.147498 
L 451.06925 283.161403 
L 453.764722 260.912739 
L 456.460194 231.917716 
L 459.155667 198.152297 
L 464.546611 125.68278 
L 467.242083 91.91736 
L 469.937556 62.922337 
L 472.633028 40.673673 
L 475.3285 26.687578 
L 478.023972 21.917182 
L 480.719444 26.687578 
L 483.414917 40.673673 
L 486.110389 62.922337 
L 488.805861 91.91736 
L 491.501333 125.68278 
L 496.892278 198.152297 
L 499.58775 231.917716 
L 502.283222 260.912739 
L 504.978694 283.161403 
L 507.674167 297.147498 
L 510.369639 301.917894 
L 513.065111 297.147498 
L 515.760583 283.161403 
L 518.456056 260.912739 
L 521.151528 231.917716 
L 523.847 198.152297 
L 529.237944 125.68278 
L 531.933417 91.91736 
L 534.628889 62.922337 
L 537.324361 40.673673 
L 540.019833 26.687578 
L 542.715306 21.917182 
L 545.410778 26.687578 
L 548.10625 40.673673 
L 550.801722 62.922337 
L 553.497194 91.91736 
L 556.192667 125.68278 
L 561.583611 198.152297 
L 564.279083 231.917716 
L 566.974556 260.912739 
L 569.6675 283.140539 
L 569.6675 283.140539 
" clip-path="url(#p0dd1b5daa2)" style="fill: none; stroke: #dd513a; stroke-width: 1.5; stroke-linecap: square"/>
   </g>
   <g id="line2d_22">
    <path d="M 62.92125 289.383549 
L 65.616722 266.899481 
L 68.312194 237.570681 
L 71.007667 203.426923 
L 76.398611 130.285406 
L 79.094083 96.326091 
L 81.789556 67.285499 
L 84.485028 45.166047 
L 87.1805 31.497158 
L 89.875972 27.231156 
L 92.571444 32.678405 
L 95.266917 47.486247 
L 97.962389 70.663044 
L 100.657861 100.64579 
L 103.353333 135.406617 
L 108.744278 209.678105 
L 111.43975 244.152813 
L 114.135222 273.676945 
L 116.830694 296.248755 
L 119.526167 310.339455 
L 122.221639 314.997444 
L 124.917111 309.91333 
L 127.612583 295.441029 
L 130.308056 272.573818 
L 133.003528 242.876608 
L 135.699 208.379409 
L 141.089944 134.578128 
L 143.785417 100.314043 
L 146.480889 70.986504 
L 149.176361 48.598604 
L 151.871833 34.680213 
L 154.567306 30.183785 
L 157.262778 35.419449 
L 159.95825 50.033907 
L 162.653722 73.034472 
L 165.349194 102.85673 
L 168.044667 137.471066 
L 173.435611 211.483604 
L 176.131083 245.841634 
L 178.826556 275.254877 
L 181.522028 297.719775 
L 184.2175 311.706005 
L 186.912972 316.260818 
L 189.608444 311.074081 
L 192.303917 296.499445 
L 194.999389 273.53032 
L 197.694861 243.732186 
L 200.390333 209.135938 
L 205.781278 135.146902 
L 208.47675 100.796716 
L 211.172222 71.38997 
L 213.867694 48.930798 
L 216.563167 34.949887 
L 219.258639 30.40012 
L 221.954111 35.5917 
L 224.649583 50.170951 
L 227.345056 73.144454 
L 230.040528 102.94665 
L 232.736 137.546536 
L 238.126944 211.540349 
L 240.822417 245.890647 
L 243.517889 275.295045 
L 246.213361 297.74859 
L 248.908833 311.71983 
L 251.604306 316.255307 
L 254.299778 311.044541 
L 256.99525 296.441309 
L 259.690722 273.439521 
L 262.386194 243.605571 
L 265.081667 208.971523 
L 270.472611 134.906756 
L 273.168083 100.521699 
L 275.863556 71.083999 
L 278.559028 48.599034 
L 281.2545 34.5984 
L 283.949972 30.035565 
L 286.645444 35.220873 
L 289.340917 49.800412 
L 292.036389 72.780085 
L 294.731861 102.593325 
L 297.427333 137.207804 
L 302.818278 211.235273 
L 305.51375 245.60138 
L 308.209222 275.018868 
L 310.904694 297.481465 
L 313.600167 311.456751 
L 316.295639 315.990613 
L 318.991111 310.772378 
L 321.686583 296.156005 
L 324.382056 273.136029 
L 327.077528 243.279799 
L 329.773 208.620671 
L 335.163944 134.503307 
L 337.859417 100.093909 
L 340.554889 70.635163 
L 343.250361 48.133716 
L 345.945833 34.122112 
L 348.641306 29.554419 
L 351.336778 34.741163 
L 354.03225 49.3282 
L 356.727722 72.320789 
L 359.423194 102.151379 
L 362.118667 136.786324 
L 367.509611 210.858025 
L 370.205083 245.244691 
L 372.900556 274.679671 
L 375.596028 297.155429 
L 378.2915 311.138573 
L 380.986972 315.674384 
L 383.682444 310.451989 
L 386.377917 295.825566 
L 389.073389 272.790293 
L 391.768861 242.914491 
L 394.464333 208.232816 
L 399.855278 134.067472 
L 402.55075 99.635824 
L 405.246222 70.158019 
L 407.941694 47.641935 
L 410.637167 33.621111 
L 413.332639 29.050187 
L 416.028111 34.239901 
L 418.723583 48.835864 
L 421.419056 71.842718 
L 424.114528 101.691896 
L 426.81 136.348488 
L 432.200944 210.466518 
L 434.896417 244.874678 
L 437.591889 274.328022 
L 440.287361 296.817761 
L 442.982833 310.80951 
L 445.678306 315.34798 
L 448.373778 310.122076 
L 451.06925 295.486231 
L 453.764722 272.436221 
L 456.460194 242.541394 
L 459.155667 207.837664 
L 464.546611 133.625254 
L 467.242083 99.171785 
L 469.937556 69.675297 
L 472.633028 47.144954 
L 475.3285 33.115245 
L 478.023972 28.541418 
L 480.719444 33.734402 
L 483.414917 48.339581 
L 486.110389 71.36096 
L 488.805861 101.228981 
L 491.501333 135.907445 
L 496.892278 210.07222 
L 499.58775 244.502055 
L 502.283222 273.973948 
L 504.978694 296.477817 
L 507.674167 310.478337 
L 510.369639 315.019592 
L 513.065111 309.79032 
L 515.760583 295.145164 
L 518.456056 272.080537 
L 521.151528 242.166789 
L 523.847 207.441108 
L 529.237944 133.181815 
L 531.933417 98.706603 
L 534.628889 69.191512 
L 537.324361 46.646982 
L 540.019833 32.608454 
L 542.715306 28.031795 
L 545.410778 33.228104 
L 548.10625 47.842557 
L 550.801722 70.878511 
L 553.497194 100.765427 
L 556.192667 135.465801 
L 561.583611 209.677403 
L 564.279083 244.128963 
L 566.974556 273.619428 
L 569.6675 296.116351 
L 569.6675 296.116351 
" clip-path="url(#p0dd1b5daa2)" style="fill: none; stroke: #932667; stroke-width: 1.5; stroke-linecap: square"/>
   </g>
   <g id="patch_3">
    <path d="M 62.92125 330.978 
L 62.92125 7.2 
" style="fill: none; stroke: #000000; stroke-width: 0.8; stroke-linejoin: miter; stroke-linecap: square"/>
   </g>
   <g id="patch_4">
    <path d="M 548.10625 330.978 
L 548.10625 7.2 
" style="fill: none; stroke: #000000; stroke-width: 0.8; stroke-linejoin: miter; stroke-linecap: square"/>
   </g>
   <g id="patch_5">
    <path d="M 62.92125 330.978 
L 548.10625 330.978 
" style="fill: none; stroke: #000000; stroke-width: 0.8; stroke-linejoin: miter; stroke-linecap: square"/>
   </g>
   <g id="patch_6">
    <path d="M 62.92125 7.2 
L 548.10625 7.2 
" style="fill: none; stroke: #000000; stroke-width: 0.8; stroke-linejoin: miter; stroke-linecap: square"/>
   </g>
   <g id="legend_1">
    <g id="patch_7">
     <path d="M 138.84375 415.2447 
L 472.18375 415.2447 
Q 474.98375 415.2447 474.98375 412.4447 
L 474.98375 389.3447 
Q 474.98375 386.5447 472.18375 386.5447 
L 138.84375 386.5447 
Q 136.04375 386.5447 136.04375 389.3447 
L 136.04375 412.4447 
Q 136.04375 415.2447 138.84375 415.2447 
z
" style="fill: #ffffff; opacity: 0.8; stroke: #cccccc; stroke-linejoin: miter"/>
    </g>
    <g id="line2d_23">
     <path d="M 141.64375 401.833137 
L 155.64375 401.833137 
L 169.64375 401.833137 
" style="fill: none; stroke: #000004; stroke-width: 1.5; stroke-linecap: square"/>
    </g>
    <g id="text_21">
     <!-- $\dot{Q}_{\text{tot}}$ -->
     <g transform="translate(180.84375 406.733137) scale(0.14 -0.14)">
      <defs>
       <path id="DejaVuSans-307" d="M -1894 4863 
L -1319 4863 
L -1319 4134 
L -1894 4134 
L -1894 4863 
z
M -1600 3584 
L -1600 3584 
z
" transform="scale(0.015625)"/>
       <path id="DejaVuSans-Oblique-51" d="M 2309 -84 
Q 2275 -88 2237 -89 
Q 2200 -91 2125 -91 
Q 1250 -91 756 411 
Q 263 913 263 1797 
Q 263 2319 452 2844 
Q 641 3369 978 3788 
Q 1369 4269 1858 4509 
Q 2347 4750 2938 4750 
Q 3794 4750 4287 4245 
Q 4781 3741 4781 2869 
Q 4781 1928 4265 1147 
Q 3750 366 2919 44 
L 3553 -825 
L 2847 -825 
L 2309 -84 
z
M 2919 4238 
Q 2400 4238 2003 3986 
Q 1606 3734 1313 3219 
Q 1125 2891 1026 2522 
Q 928 2153 928 1778 
Q 928 1128 1239 775 
Q 1550 422 2119 422 
Q 2631 422 3032 676 
Q 3434 931 3719 1434 
Q 3909 1772 4009 2142 
Q 4109 2513 4109 2881 
Q 4109 3528 3796 3883 
Q 3484 4238 2919 4238 
z
" transform="scale(0.015625)"/>
      </defs>
      <use xlink:href="#DejaVuSans-307" transform="translate(74.271484 31.015625)"/>
      <use xlink:href="#DejaVuSans-Oblique-51" transform="translate(0 0.296875)"/>
      <use xlink:href="#DejaVuSans-74" transform="translate(79.667969 -16.109375) scale(0.7)"/>
      <use xlink:href="#DejaVuSans-6f" transform="translate(107.114258 -16.109375) scale(0.7)"/>
      <use xlink:href="#DejaVuSans-74" transform="translate(149.941406 -16.109375) scale(0.7)"/>
     </g>
    </g>
    <g id="line2d_24">
     <path d="M 234.18375 401.833137 
L 248.18375 401.833137 
L 262.18375 401.833137 
" style="fill: none; stroke: #fca50a; stroke-width: 1.5; stroke-linecap: square"/>
    </g>
    <g id="text_22">
     <!-- $\dot{Q}_{\text{Li}}$ -->
     <g transform="translate(273.38375 406.733137) scale(0.14 -0.14)">
      <defs>
       <path id="DejaVuSans-4c" d="M 628 4666 
L 1259 4666 
L 1259 531 
L 3531 531 
L 3531 0 
L 628 0 
L 628 4666 
z
" transform="scale(0.015625)"/>
      </defs>
      <use xlink:href="#DejaVuSans-307" transform="translate(74.271484 31.015625)"/>
      <use xlink:href="#DejaVuSans-Oblique-51" transform="translate(0 0.296875)"/>
      <use xlink:href="#DejaVuSans-4c" transform="translate(79.667969 -16.109375) scale(0.7)"/>
      <use xlink:href="#DejaVuSans-69" transform="translate(118.666992 -16.109375) scale(0.7)"/>
     </g>
    </g>
    <g id="line2d_25">
     <path d="M 321.12375 401.833137 
L 335.12375 401.833137 
L 349.12375 401.833137 
" style="fill: none; stroke: #dd513a; stroke-width: 1.5; stroke-linecap: square"/>
    </g>
    <g id="text_23">
     <!-- $\dot{Q}_{\text{b}}$ -->
     <g transform="translate(360.32375 406.733137) scale(0.14 -0.14)">
      <defs>
       <path id="DejaVuSans-62" d="M 3116 1747 
Q 3116 2381 2855 2742 
Q 2594 3103 2138 3103 
Q 1681 3103 1420 2742 
Q 1159 2381 1159 1747 
Q 1159 1113 1420 752 
Q 1681 391 2138 391 
Q 2594 391 2855 752 
Q 3116 1113 3116 1747 
z
M 1159 2969 
Q 1341 3281 1617 3432 
Q 1894 3584 2278 3584 
Q 2916 3584 3314 3078 
Q 3713 2572 3713 1747 
Q 3713 922 3314 415 
Q 2916 -91 2278 -91 
Q 1894 -91 1617 61 
Q 1341 213 1159 525 
L 1159 0 
L 581 0 
L 581 4863 
L 1159 4863 
L 1159 2969 
z
" transform="scale(0.015625)"/>
      </defs>
      <use xlink:href="#DejaVuSans-307" transform="translate(74.271484 31.015625)"/>
      <use xlink:href="#DejaVuSans-Oblique-51" transform="translate(0 0.296875)"/>
      <use xlink:href="#DejaVuSans-62" transform="translate(79.667969 -16.109375) scale(0.7)"/>
     </g>
    </g>
    <g id="line2d_26">
     <path d="M 406.10375 401.833137 
L 420.10375 401.833137 
L 434.10375 401.833137 
" style="fill: none; stroke: #932667; stroke-width: 1.5; stroke-linecap: square"/>
    </g>
    <g id="text_24">
     <!-- $\dot{Q}_{\text{Wi}}$ -->
     <g transform="translate(445.30375 406.733137) scale(0.14 -0.14)">
      <defs>
       <path id="DejaVuSans-57" d="M 213 4666 
L 850 4666 
L 1831 722 
L 2809 4666 
L 3519 4666 
L 4500 722 
L 5478 4666 
L 6119 4666 
L 4947 0 
L 4153 0 
L 3169 4050 
L 2175 0 
L 1381 0 
L 213 4666 
z
" transform="scale(0.015625)"/>
      </defs>
      <use xlink:href="#DejaVuSans-307" transform="translate(74.271484 31.015625)"/>
      <use xlink:href="#DejaVuSans-Oblique-51" transform="translate(0 0.296875)"/>
      <use xlink:href="#DejaVuSans-57" transform="translate(79.667969 -16.109375) scale(0.7)"/>
      <use xlink:href="#DejaVuSans-69" transform="translate(148.881836 -16.109375) scale(0.7)"/>
     </g>
    </g>
   </g>
  </g>
 </g>
 <defs>
  <clipPath id="p0dd1b5daa2">
   <rect x="62.92125" y="7.2" width="485.185" height="323.778"/>
  </clipPath>
 </defs>
</svg>
